<?xml version="1.0" encoding="utf-8"?>
<!DOCTYPE svg PUBLIC "-//W3C//DTD SVG 1.1//EN" "http://www.w3.org/Graphics/SVG/1.1/DTD/svg11.dtd">
<svg version="1.1" id="Layer_1" xmlns="http://www.w3.org/2000/svg" xmlns:xlink="http://www.w3.org/1999/xlink" x="0px" y="0px"
	 viewBox="0 0 985.8767 1809.7737" enable-background="new 0 0 985.8767 1809.7737" xml:space="preserve">
<g>
	<path fill="#0C1B5E" d="M65.0135,1050.8746c5.936,0.3375,11.3094-2.4569,17.0748-3.0748c0.3225-0.0345,0.6231-0.2714,0.9457-0.3071
		c2.3411-0.2598,5.6256-1.9669,6.4933,1.2356c0.932,3.4397-2.784,4.0989-5.1836,4.7524
		c-5.9312,1.6158-11.9499,2.9186-17.9524,4.2621c-3.5678,0.7985-7.2711,1.1371-10.7138,2.2825
		c-1.5169,0.5048-5.0731-0.2963-4.0947,3.444c0.8267,3.1605-0.0548,7.5521,4.8857,8.0538c3.1307,0.3179,6.3254,0.2134,9.4768,0.0371
		c1.7063-0.0956,3.7668-0.1899,3.1962-3.0852c-0.2794-1.4178,0.7373-2.5278,2.0789-3.083c1.4963-0.6191,2.8771,0.1263,3.4521,1.274
		c2.515,5.0204,6.6132,3.5026,10.3834,2.551c15.4669-3.9033,30.621-8.7294,45.2739-15.1353
		c15.8349-6.9226,31.4281-14.224,45.5513-24.3422c7.0944-5.0826,13.5449-10.7269,17.8053-18.5033
		c0.7487-1.3666,1.5475-2.8312,3.3774-2.2203c1.8358,0.6129,1.5485,2.4484,1.3976,3.8459
		c-0.3967,3.6748-2.8012,6.3085-5.0773,8.9676c-9.3704,10.9473-21.633,18.0468-33.9954,24.798
		c-17.5059,9.5603-35.8558,17.3356-54.826,23.5455c-6.2999,2.0623-12.6887,4.0018-19.1779,5.2837
		c-4.2524,0.8402-3.2431,2.5521-1.8851,4.9755c5.1234,9.1432,10.5123,18.1331,14.812,27.73
		c7.7762,17.3564,13.2623,35.3441,16.867,54.0475c2.7772,14.4094,4.9333,28.8235,6.1288,43.4458
		c1.4752,18.0439,1.36,36.009-0.0579,54.058c-1.6073,20.4589-5.5012,40.4545-10.499,60.2866
		c-0.73,2.8969-1.575,5.7803-2.6045,8.5826c-1.9473,5.3003-1.1177,6.748,4.6468,7.2942c6.2931,0.5964,12.5875,1.4482,18.8943,1.5823
		c20.7325,0.4403,41.4916,2.2405,62.1737-1.0792c15.4255-2.476,30.7333-5.4362,45.5975-10.3313
		c3.1339-1.0321,6.1983-2.382,9.1141-3.9263c1.52-0.8049,3.0653-1.2061,4.6623-1.6156c1.7566-0.4504,3.5413-0.3391,4.2936,1.458
		c0.8241,1.9686-0.7509,3.0637-2.2855,3.8429c-7.5723,3.8447-15.5256,6.7659-23.7393,8.7959
		c-16.1257,3.9852-32.2517,8.2108-48.9065,9.2734c-19.5867,1.25-39.1752,1.0549-58.7035-1.302
		c-2.1051-0.2542-4.2674-0.0342-6.3998-0.0342c-0.2337,2.0048,1.0398,2.6469,2.1415,3.2692
		c8.5075,4.8054,16.806,9.1052,27.2919,9.4362c19.3707,0.6111,38.45-1.0752,57.473-4.0568
		c6.7038-1.0508,13.2393-3.1664,19.8611-4.7562c1.4533-0.3491,2.9384-0.6606,4.424-0.7571c2.0775-0.1348,4.795-0.9246,5.4666,1.936
		c0.6676,2.8436-2.3336,3.0638-3.9619,3.5115c-15.0119,4.1259-30.2079,7.3878-45.7312,8.9257
		c-6.1869,0.6129-12.3788,1.1777-18.5618,1.8267c-1.1778,0.1235-3.2024-0.4434-3.0425,1.5137
		c0.1872,2.2909,2.1446,1.3097,3.5393,1.1906c12.7695-1.0908,25.431-2.9972,38.0143-5.3569
		c4.6321-0.8687,6.9172,0.1204,8.0824,5.131c1.1752,5.0536-1.7509,5.9906-5.0971,7.4177
		c-15.1588,6.4645-30.9788,9.901-47.4253,10.3646c-4.6797,0.132-7.3271,1.1373-7.7353,6.8253
		c-1.3571,18.9144-2.1944,37.8263-2.4959,56.7882c-0.257,16.1598,0.7938,32.053,6.103,47.4398
		c0.9732,2.8203,2.2874,5.5212,3.3601,8.3096c1.5342,3.988,3.8958,4.309,7.7584,2.7605
		c21.8724-8.7684,41.9462-20.7842,61.8378-33.2377c9.8351-6.1573,18.7406-13.6051,28.4816-19.7936
		c11.0887-7.0443,21.832-14.4955,31.8334-22.9615c15.5483-13.1613,31.0578-26.3481,43.9744-42.321
		c3.9142-4.8403,4.2737-9.1368,2.331-14.5756c-4.9708-13.9163-8.9845-28.1653-13.1705-42.3116
		c-4.7527-16.0614-9.2727-32.226-13.6157-48.4236c-5.9783-22.2965-10.9373-44.8135-15.8111-67.3745
		c-2.6898-12.4512-4.7838-25.1304-9.0134-37.243c-1.6111-0.5735-1.9721,0.9003-2.6745,1.6545
		c-16.0822,17.2666-35.9865,28.6636-57.3895,37.9463c-15.3006,6.636-31.3271,10.7404-47.4467,14.531
		c-6.0849,1.4308-12.4312,1.788-18.6754,2.4805c-1.9893,0.2207-4.5491,0.1174-4.9935-2.2419
		c-0.4917-2.6107,2.1113-3.1028,4.0184-3.4487c9.4809-1.7195,19.12-2.7616,28.4556-5.0524
		c31.3009-7.6804,60.5168-19.8365,85.0483-41.489c0.3745-0.3306,0.7816-0.6237,1.1614-0.9484
		c8.5365-7.2963,12.1121-15.8864,7.3029-26.871c-1.1814-2.6984-1.7642-5.6587-2.6935-8.735
		c-10.9415,8.663-21.5135,17.1776-32.2381,25.4952c-24.5662,19.0532-50.8174,35.1628-80.494,45.0712
		c-7.3909,2.4677-14.966,4.3894-22.478,6.4847c-1.9978,0.5575-4.6765,1.7408-5.4633-1.2277
		c-0.7229-2.7277,2.046-3.578,4.0206-4.2252c9.6119-3.1515,19.401-5.8024,28.8921-9.2738
		c18.0145-6.589,34.6948-15.7461,50.7686-26.2738c16.8973-11.067,32.359-23.8735,47.7999-36.7594
		c8.5975-7.1747,9.0352-10.0895,3.7111-20.4172c-24.9451,24.5198-50.9306,47.7148-82.319,63.9707
		c-10.3395,5.3549-20.9039,10.1935-31.879,14.1067c-1.0957,0.3906-2.1974,0.8076-3.3317,1.0369
		c-1.7351,0.3506-3.8687,1.1471-4.7637-1.0931c-1.0152-2.541,1.0673-3.5431,2.9712-4.3035
		c5.5536-2.2181,11.2447-4.1262,16.6789-6.6016c9.8984-4.5085,19.9268-8.8296,29.7516-16.0221
		c-5.7346,1.0983-9.7787,3.3893-13.9455,5.2397c-14.1684,6.2921-28.9763,10.5946-43.9444,14.4148
		c-1.2511,0.3193-2.6503,0.1792-3.9681,0.0814c-1.2101-0.0898-2.3429-0.5841-2.5518-1.9646
		c-0.2036-1.3448,0.6262-2.3214,1.769-2.7061c2.9841-1.0045,5.9983-1.9531,9.0543-2.7052
		c17.3237-4.2642,33.9887-10.3206,49.9954-18.1937c18.5198-9.1095,36.4071-19.2867,52.8727-31.7955
		c7.598-5.7721,13.6479-13.0887,19.5441-20.5167c1.5401-1.9403,2.1278-4.2179,1.5671-6.5901
		c-1.8718-7.9194-3.8699-15.809-5.9947-24.4194c-5.1442,4.8341-7.7744,10.5923-10.7818,15.9242
		c-7.3617,13.052-17.779,23.1234-29.7364,31.7294c-18.904,13.6055-40.6065,20.9225-62.687,27.3018
		c-1.105,0.3193-2.2967,0.6255-3.4171,0.5387c-1.762-0.1366-4.0296-0.0256-4.3455-2.4363c-0.2843-2.1689,1.8889-2.619,3.3016-3.1616
		c7.2613-2.7885,15.0483-3.7382,22.3603-6.4895c20.8022-7.8276,40.6152-17.2781,56.5056-33.3447
		c2.5891-2.6178,4.5916-5.8157,6.2098-9.4336c-6.1149,3.7614-12.1024,7.7518-18.3707,11.2372
		c-13.7558,7.6487-28.4509,12.7584-43.9613,15.5265c-4.4171,0.7883-8.7569,2.0541-13.3101,1.859
		c-2.0843-0.0894-5.0791,0.5913-5.3818-2.0944c-0.335-2.9725,2.9639-3.2686,5.0495-3.5837
		c7.0695-1.0685,14.1037-2.2306,21.0681-3.8898c21.9392-5.2266,41.1411-15.7257,58.3942-30.033
		c5.2504-4.354,10.419-8.7531,14.0512-14.7039c1.9376-3.1743,2.5836-6.2325,1.7015-9.9216
		c-4.2551-17.797-8.5373-35.592-12.425-53.4717c-6.4498-29.663-13.3175-59.2382-18.1548-89.2399
		c-5.4945-34.0779-10.6665-68.1713-11.3706-102.7729c-0.0402-1.9746-0.4817-3.9411-0.9096-7.2507
		c-4.051,7.5643-9.0184,13.0121-13.794,18.654c-12.9398,15.2876-29.4372,24.641-48.3527,30.1238
		c-18.7963,5.4483-37.966,6.3333-57.3338,4.0255c-0.3309-0.0394-0.6655-0.0514-0.9946-0.101
		c-12.9872-1.9539-13.0034-1.9638-19.7326,9.5132c-4.1339,7.0507-8.9502,13.6345-13.6919,20.2724
		c-1.1156,1.5616-2.1148,3.2065-3.5434,5.3866c4.292-0.1177,7.2225-1.8253,10.3216-2.8311
		c19.9141-6.4622,40.2094-11.4136,60.5553-16.3298c19.5189-4.7163,37.4288-13.4398,53.0368-26.4608
		c7.5431-6.2928,14.6837-12.9891,21.336-20.1948c1.3816-1.4966,2.6233-2.9478,4.5203-1.6596
		c2.3132,1.5706,0.9488,3.6304-0.1691,5.2307c-2.7807,3.9805-6.2955,7.3151-9.8769,10.5655
		c-14.3637,13.0364-29.5455,24.8428-47.9689,31.7428c-12.6291,4.73-25.8806,7.2633-38.8023,10.9615
		c-20.5802,5.89-41.5983,10.4537-60.9397,20.0889c-2.506,1.2484-4.9026,2.7166-8.1225,4.5143
		c6.4803,2.6076,12.5908,2.9142,18.5039,3.2402c14.9646,0.8247,30.0484,1.3176,44.7668-2.0149
		c13.0538-2.9557,24.7974-9.0035,35.7909-16.8233c12.0347-8.5604,24.172-17.0381,36.998-24.4201
		c1.3205-0.7599,3.2981-2.6947,4.7693-0.3451c1.2753,2.0367,0.1583,3.9924-1.7236,5.1013
		c-17.2009,10.1354-32.6829,22.944-50.0915,32.6849c-15.3204,8.5725-32.121,11.9211-49.7234,12.3132
		c-15.8823,0.3539-31.4834-1.0389-46.9662-4.355c-1.7563-0.3762-3.8717-0.3013-4.3538-2.6152
		c-0.4762-2.2858,0.7527-3.8297,2.6858-4.8528c18.2556-9.6625,27.7692-27.0361,38.2839-43.499
		c2.1337-3.3408,4.0738-6.8644,5.6069-10.5123c1.4333-3.4103,3.6033-3.724,6.7772-3.0735
		c12.0681,2.4733,24.1864,4.3221,36.6059,3.5616c19.4833-1.193,38.2739-4.8126,55.3884-14.772
		c2.0083-1.1687,3.8973-2.5518,5.7872-3.911c1.0627-0.7643,2.0141-1.6832,4.0659-3.4231c-5.2048,1.179-9.1518,1.9588-13.0372,2.9747
		c-11.4389,2.991-23.1606,2.5318-34.7638,2.4464c-23.003-0.1692-42.8202-18.5164-45.092-41.3551
		c-0.5456-5.4854,0.9815-10.8817,2.8005-16.1048c0.6241-1.7921,1.5967-3.0615,3.6333-2.4449
		c2.0393,0.6175,2.1293,2.4448,1.8101,4.1241c-0.6505,3.4213-1.3358,6.8148-1.7682,10.2915
		c-2.2892,18.4041,14.9397,37.1516,33.265,38.9545c20.8068,2.0472,41.1718,0.2905,60.2377-9.4435
		c8.7217-4.4529,14.6788-11.6936,18.207-20.3065c3.3139-8.0899,4.5286-16.9327,4.5457-25.894
		c0.0449-23.4833,2.2366-46.7999,5.5547-70.0576c2.4122-16.9076,5.2631-33.7087,9.153-50.3236
		c1.4969-6.3933-0.2859-11.0799-4.9417-15.6692c-24.5065-24.1563-45.4689-51.0514-63.0115-80.7443
		c-11.635-19.6935-20.2688-40.6884-28.258-61.8969c-5.8952-15.6497-9.4664-32.1873-12.4519-48.716
		c-5.1366-28.4384-7.1387-57.1242-6.1637-86.0118c0.8729-25.8611,4.3922-51.3832,10.4991-76.5021
		c9.955-40.9469,27.6427-78.4505,50.7254-113.6125c7.7159-11.7537,17.4375-21.7326,26.0877-32.6438
		c17.3486-21.8832,37.8231-40.4785,59.8758-57.3544c23.5406-18.0145,48.7738-33.3997,76.1509-44.8856
		c16.2099-6.8007,32.7133-13.1225,49.938-16.8983c18.313-4.0144,36.615-7.9252,55.434-9.5804
		c19.7968-1.7411,39.5795-2.271,59.3345-1.5542c23.0838,0.8377,45.8877,4.2277,68.467,9.6814
		c14.5938,3.5249,28.869,7.7591,42.8748,12.9693c28.6406,10.6545,55.1817,25.2525,80.0739,42.9745
		c26.9753,19.205,50.8128,41.755,72.3219,66.8377c15.4274,17.9905,28.6748,37.525,40.29,58.1467
		c12.839,22.7946,22.6132,46.8643,29.8563,72.0301c6.8707,23.8719,11.5747,48.1239,13.4416,72.8544
		c1.8179,24.0821,1.3831,48.1906-0.787,72.2674c-2.5978,28.8219-9.1921,56.8137-18.1403,84.2068
		c-3.855,11.8013-9.3242,23.1258-14.6577,34.3838c-13.8281,29.1881-31.7409,55.7563-52.8365,80.1693
		c-6.632,7.6749-13.1292,15.571-20.897,22.1163c-9.1844,7.7388-12.6017,17.7388-14.1732,29.201
		c-2.923,21.3191-0.418,42.5272,0.3273,63.7755c0.3148,8.9756,1.4236,17.9429,1.3288,26.9051
		c-0.0471,4.447,2.0275,6.0969,5.4088,6.7373c9.2466,1.7513,18.5746,2.4255,27.5021-1.4189
		c6.683-2.8779,13.6145-5.569,17.6055-12.3748c0.5769-0.9837,1.3654-2.2467,2.7158-1.4576c1.1164,0.6525,0.8568,2.0019,0.692,3.186
		c-0.2802,2.0117-1.7056,3.1495-3.1177,4.3094c-5.407,4.4418-11.0215,8.5613-17.4764,11.3973
		c12.504-2.3322,23.8425-6.8882,31.4789-17.7714c3.7786-5.3854,2.864-11.9373-1.5883-15.8111
		c-4.5545-3.9626-12.6872-3.9832-17.5938-0.0197c-0.6439,0.52-1.1271,1.2516-1.7996,1.7205
		c-0.8019,0.5591-1.2925,2.4495-2.7062,0.9968c-0.9394-0.9653-0.5776-2.1832,0.0923-3.2319
		c2.1161-3.3128,5.5611-4.8428,9.0309-5.8226c6.9666-1.9672,13.0223,0.4371,17.4421,5.7917
		c4.0038,4.8508,4.2692,10.5362,1.5798,16.4183c-2.699,5.9034-7.3536,9.7117-12.6565,12.9973
		c-15.1542,9.3892-31.553,12.8859-49.2135,10.4644c-0.4947-0.0678-0.9974-0.3024-1.4722-0.248
		c-1.2853,0.1471-3.3544-1.0648-3.4424,1.4218c-0.063,1.7806,1.6359,1.8666,2.9569,1.9172
		c5.1558,0.1975,10.3141,0.4703,15.471,0.4595c15.5644-0.0327,30.8497-2.3671,45.4114-7.7531
		c21.3456-7.8952,41.2131-18.0688,51.8898-39.986c0.6345-1.3026,1.3427-3.2891,3.0994-2.5391
		c1.8984,0.8105,1.0675,2.9677,0.6602,4.4235c-4.0339,14.4196-10.7327,27.4106-19.8301,39.3992
		c-9.1485,12.0559-21.2236,20.2846-33.6174,28.2963c-0.7156,0.4626-1.4326,0.8474-1.6969,2.1817
		c14.0251-1.8203,26.7711-7.2178,39.4058-12.7273c16.2514-7.0866,31.24-16.2885,44.2537-28.4805
		c6.8234-6.3925,12.517-13.7197,17.639-21.5019c0.8142-1.2371,1.3131-3.2644,3.0275-2.6163
		c1.9126,0.723,1.3569,2.8745,0.8453,4.3817c-3.1369,9.2405-8.0239,17.5593-14.0411,25.1735
		c-15.9076,20.1293-35.867,34.8088-59.7998,44.1116c-2.8922,1.1243-5.5698,2.8008-8.599,4.3503
		c7.608,2.7685,15.2414,0.6185,22.7153,1.3515c14.8199,1.4536,29.1116,5.2154,43.4055,9.0001c8.158,2.16,16.26,4.617,24.2136,7.4309
		c4.9632,1.7558,9.6433,4.3467,14.3593,6.7422c1.1764,0.5976,3.3437,1.0461,2.7126,3.0015
		c-0.5897,1.8276-2.4814,1.2267-3.8601,0.9199c-14.1972-3.1591-28.6189-4.0107-43.1006-4.3823
		c-11.1355-0.2857-22.1323,1.6376-33.2325,1.9064c-7.4524,0.1805-14.927,0.362-23.2593,2.9034
		c16.2935,4.9388,31.4355,9.9982,46.0949,16.4444c7.1107,3.1268,8.4583,4.471,8.6759,12.0927
		c0.3679,12.8802,3.4044,25.3159,6.4326,37.7545c0.5865,2.4093,2.1143,3.5865,4.1774,4.5085
		c2.7277,1.2191,5.4197,2.5222,8.0931,3.857c1.1221,0.5603,2.8897,1.0057,2.1378,2.7289c-0.6528,1.4961-2.3234,1.1198-3.566,0.7172
		c-2.6257-0.851-5.1918-1.8855-8.0627-2.9485c-0.1926,5.8932,1.7493,9.5762,7.3541,11.0291c3.202,0.8301,6.261,2.224,9.3643,3.4164
		c1.1313,0.4347,2.2132,1.1392,1.7639,2.5691c-0.4844,1.5416-1.8696,1.2214-2.9504,0.9012c-3.773-1.1179-7.512-2.3509-12.1816-3.831
		c3.338,14.8856,6.5811,29.1385,9.722,43.4141c3.1794,14.451,5.5494,29.0598,7.4435,43.7172
		c1.1051,8.5522,0.7424,9.5342-7.951,10.611c-11.1357,1.3794-22.1537,3.7087-33.2236,5.6216
		c-1.1153,0.1926-2.2025,0.4125-3.4916,2.0276c10.4238,0,20.3016-0.2338,30.1647,0.0472
		c22.6221,0.6443,44.9253,4.0819,67.0945,8.3936c2.1834,0.4248,6.3929,0.5773,5.9412,3.0895
		c-0.613,3.4089-4.5531,2.0095-7.2467,1.8789c-12.5974-0.6112-25.1287-1.3856-37.8039-0.0582
		c-12.5596,1.3154-25.1661,2.1576-37.6605,4.1232c-2.6636,0.4189-5.0701,1.2074-7.3371,3.1593
		c9.1668,1.145,18.1273,2.3749,27.1151,3.3538c7.9249,0.8632,8.952,1.8809,9.5225,9.7181
		c1.993,27.381,3.4398,54.7931,2.9897,82.2469c-0.7816,47.6852-6.9858,94.4885-23.7532,139.4867
		c-9.7988,26.297-22.2236,51.2058-38.8893,73.8533c-13.2363,17.9873-28.0361,34.5428-44.4489,49.7877
		c-29.4333,27.3394-62.5081,49.4038-97.8531,68.019c-30.6766,16.1566-62.4145,30.0886-95.2875,41.3726
		c-12.2573,4.2074-24.5138,8.3959-36.8712,12.2916c-1.6635,0.5244-3.8743,1.7798-4.9025-0.4122
		c-1.0771-2.2965,1.6042-2.9917,2.9235-3.9094c21.3293-14.8363,33.4531-34.8284,35.5756-61.012
		c2.2598-27.876-2.433-54.705-10.8988-81.0479c-4.571-14.2236-9.5006-28.3169-13.1519-42.8364
		c-4.6042-18.3092-3.4041-36.5569-0.7599-54.944c2.7637-19.2188,6.4302-38.3278,7.8411-57.7141
		c0.3492-4.7987,1.51-9.4252,1.8326-14.2053c0.3916-5.8036,1.5837-6.4827,7.2786-5.782c6.5962,0.8118,13.2135,1.4623,19.8306,2.0879
		c1.3904,0.1316,2.8196-0.1476,5.5845-0.3236c-8.333-4.0518-15.447-7.5057-22.5547-10.9724
		c-1.035-0.5049-2.1689-0.9198-3.0269-1.6476c-1.2295-1.0428-2.8754-2.1313-2.2238-4.095c0.6929-2.0878,2.7532-1.833,4.2679-1.5878
		c10.3646,1.6797,20.9504,0.734,31.2855,2.7136c1.12,0.2145,2.3237,0.0439,3.4844-0.022c1.0482-0.0598,2.1349-0.4546,2.2324-1.5697
		c0.1072-1.2266-1.0854-1.3446-2.0321-1.731c-11.2167-4.5778-22.7528-8.3312-33.7533-13.4839
		c-10.3672-4.8564-10.7354-4.8329-5.0042-14.1749c11.5673-18.8553,17.7881-39.614,22.5198-60.9537
		c0.3958-1.7848,0.6171-3.611,0.8552-5.4263c0.0545-0.4158-0.1572-0.8666-0.2839-1.484
		c-5.0315,2.9824-8.0281,8.0203-12.6901,11.4441c-1.9581-2.8893-0.0424-4.5164,1.4264-6.1138
		c3.5981-3.9128,7.3203-7.7115,10.9412-11.6039c2.1323-2.292,3.6377-4.5909,1.1096-7.7639
		c-1.728-2.1687-0.7443-4.5052,0.9911-6.3074c2.0038-2.0811,2.4349-4.5668,2.6347-7.2888
		c1.1703-15.9408,0.7616-31.8763-0.0551-47.8102c-0.4093-7.9834-0.4704-7.9156-8.2859-8.0343
		c-2.6412-0.04-7.0121,0.7998-6.8237-2.6263c0.15-2.7242,4.3246-1.425,6.8698-1.1149c6.2314,0.7593,6.8397-0.0673,5.737-6.4947
		c-2.2156-12.9129-7.0415-24.5382-16.2906-34.0714c-0.3456-0.3563-0.6496-0.7654-0.9119-1.1879
		c-1.2618-2.0323-4.2569-3.811-2.6515-6.4399c1.3637-2.2332,4.4242-1.5413,6.8975-1.7995
		c12.9704-1.3543,26.1445-1.6072,39.8198-6.8027c-11.8978-2.2212-22.5735-4.1744-33.2302-6.2266
		c-3.426-0.6598-6.827-1.49-10.1875-2.4282c-1.3345-0.3725-3.3145-0.6132-3.1686-2.5591c0.1251-1.6689,1.7894-2.304,3.2443-2.6932
		c3.2112-0.8591,6.4297-1.7254,9.6904-2.3553c3.4413-0.6649,4.6439-1.9476,3.025-5.5936
		c-5.5361-12.4677-12.8503-23.611-22.7712-33.0721c-2.2356-2.1321-6.9671-3.6917-5.4565-7.4205
		c1.2402-3.0615,5.6698-1.5334,8.6954-1.9822c21.5479-3.1959,43.0063-6.5857,62.4501-17.4609
		c5.9217-3.312,10.3638-8.0378,15.3862-13.2012c-13.5393,1.2061-26.4011,1.373-38.9601-3.0983
		c-14.8608-5.2908-25.9489-14.9884-34.7184-27.8591c-7.3843-10.8378-5.4583-21.0189,1.7516-30.7382
		c6.6459-8.959,15.2118-15.6987,25.636-19.9263c1.5136-0.6138,3.1575-1.8442,4.4464,0.0591c1.2493,1.845-0.4958,3.043-1.4683,4.3031
		c-1.2169,1.5767-2.557,3.0581-3.7737,4.6348c-7.2888,9.446-4.9505,19.9917,5.9302,25.1678
		c13.1467,6.254,26.6512,7.1389,40.7303,2.7125c13.7521-4.3237,23.6511-13.2543,33.1567-24.9798
		c-4.9609,0.7665-7.8594,3.3104-10.9637,5.0177c-11.5638,6.3599-23.5041,6.5909-35.7748,3.0338
		c-5.9324-1.7198-10.3985-6.7859-10.2819-11.0051c0.0234-0.8494-0.0289-1.7869,0.7786-2.2234
		c0.8937-0.4832,1.7045,0.0765,1.9955,0.903c3.7224,10.5726,13.3663,10.4625,21.6014,10.5974
		c18.5568,0.3038,31.6754-9.8602,41.6308-24.6926c0.6456-0.9619,1.9396-2.2614,0.4111-3.5009
		c-1.5225-1.2345-2.3078,0.5161-3.206,1.1644c-16.3049,11.7667-33.7487,14.8982-52.7427,7.2798
		c-13.1965-5.2931-19.6359-18.3887-15.6605-32.0501c2.7462-9.4369,10.0802-11.0018,18.4908-10.3918
		c1.2379,0.0898,2.9325,0.4911,2.5609,2.341c-0.3102,1.5441-1.8806,1.0822-2.9322,1.0864
		c-6.2739,0.0251-12.72,0.7324-14.1306,8.0605c-2.7536,14.3047,2.0497,24.6989,16.9734,28.8187
		c16.3591,4.516,31.0591,1.4436,44.9297-8.1075c4.8279-3.3245,6.0732-7.1851,5.5341-12.5475
		c-2.3486-23.3645-3.2272-46.8162-3.8774-70.2775c-0.2595-9.3611,1.0671-18.576,2.7153-27.7511
		c0.2101-1.1696,0.2967-2.2473-0.4363-4.2587c-70.2028,60.7511-151.9333,89.6049-244.052,88.8331
		c-91.9718-0.7707-172.7537-31.2771-241.4894-93.8186c-2.8453,5.5618-3.6519,11.1151-4.6117,16.5173
		c-3.9695,22.3403-7.7592,44.7166-9.732,67.3464c-1.2707,14.5754-2.3571,29.171-1.6545,43.8149
		c0.411,8.5671,6.4661,13.1168,16.7544,15.9255c17.5518,4.7917,34.3356,3.3335,48.7251-9.4121
		c0.8593-0.7611,1.8655-1.4658,2.9283-1.8609c1.4075-0.5234,3.0359-0.7969,4.1119,0.6577c1.2465,1.6848-0.0949,2.8238-1.2007,3.7946
		c-13.4586,11.8152-28.8885,17.5814-46.8719,14.4928c-6.1049-1.0485-12.3247-2.0151-19.0669-5.7382
		c4.794,7.7067,10.3183,12.1991,17.5422,14.7573c20.7568,7.3506,41.5388,8.5173,61.2935-2.2961
		c13.3208-7.2916,22.267-18.2445,21.0415-34.9807c-0.2922-3.9905-1.9562-5.1212-5.4441-5.1469
		c-1.3036-0.0095-2.6289-0.3168-3.8998-0.6554c-1.3241-0.3526-1.6899-1.4564-1.7197-2.7233
		c-0.0316-1.3458,0.5014-2.2022,1.8802-2.509c5.6564-1.2585,13.2507-0.4206,15.1208,8.0537
		c2.0974,9.504-0.2903,17.9168-5.4466,25.5882c-9.9449,14.7958-24.0643,22.7504-41.7162,25.2838
		c-16.4861,2.3662-32.0834,0.1057-47.072-6.8748c-5.905-2.7501-10.7139-7.0341-15.2246-11.9042
		c-1.5905,2.4333-0.1426,4.3122,0.6768,6.1369c4.771,10.623,13.1501,18.2742,21.8162,25.5093
		c26.4183,22.0563,57.216,29.832,91.1016,27.6517c23.4699-1.5102,44.8175-9.0956,64.4023-21.7719
		c6.2726-4.0599,10.4253-10.0101,11.7074-17.6732c0.3261-1.9489-0.1681-4.632,2.9523-5.0056
		c3.2509-0.3892,4.1054,2.2692,4.4693,4.3676c1.3723,7.9143,0.8844,15.9595-0.871,23.6743
		c-5.6639,24.8929-20.3279,42.4211-44.1822,51.9989c-3.2217,1.2936-6.527,2.4197-9.6203,3.9694
		c-1.0424,0.5222-3.1629,0.3754-2.8341,2.7618c0.2968,2.1536,1.6023,3.0755,3.3978,3.6331
		c9.3466,2.9025,18.7626,5.5965,28.0386,8.7083c20.8242,6.9857,41.7164,13.8363,57.5118,30.4467
		c12.2683,12.9014,22.0812,27.4343,29.9164,43.3615c0.366,0.7441,0.7602,1.509,0.9276,2.3088
		c0.3457,1.6524,1.888,3.6462-0.6043,4.7842c-2.1701,0.9908-3.7704-0.1535-5.0452-1.9852
		c-5.9563-8.5583-12.7968-16.3249-20.7747-23.069c-10.334-8.7355-22.8264-11.1723-35.7586-11.7913
		c-3.7665-0.1803-7.3752-1.978-12.4806-0.7542c7.7136,2.3658,14.4632,3.9667,20.9445,6.4899
		c11.1888,4.3557,22.3169,8.6436,31.6338,16.5059c1.1447,0.9659,2.2948,1.9401,3.3276,3.0201
		c1.3212,1.3813,2.5106,3.0653,0.8636,4.8025c-1.6633,1.7543-3.4926,0.6483-4.8287-0.6472
		c-11.7318-11.375-26.6519-16.2854-41.7744-20.8844c-16.0992-4.8959-32.7454-7.1209-49.2019-10.2594
		c-2.8358-0.5408-5.8632-0.0765-10.1929-0.0765c5.0462,2.6611,9.211,4.129,13.5597,5.1862
		c19.5395,4.7497,39.0511,9.6172,58.6246,14.2218c8.3026,1.9532,12.4153,6.6382,13.8055,15.264
		c2.7661,17.1628,9.5812,33.1903,16.1811,49.1366c19.9878,48.2928,31.466,98.6763,37.4236,150.3998
		c2.6253,22.7927,4.002,45.6931,4.4381,68.6764c0.5149,27.1346,0.0832,54.2363-2.3226,81.228
		c-3.0085,33.7548-8.1637,67.2267-17.1472,99.994c-7.3354,26.7557-15.3832,53.2512-26.0537,78.9392
		c-15.0775,36.2976-33.8842,70.5483-55.0278,103.5984c-11.6587,18.224-24.5968,35.5349-37.7012,52.7059
		c-7.9359,10.3988-16.8415,20.0511-25.0687,30.235c-17.6692,21.8722-37.9376,41.2814-57.6558,61.2124
		c-2.0247,2.0466-4.22,5.4148-7.3908,4.0095c-3.1161-1.3811-2.0788-5.1716-2.1338-8.1349
		c-0.775-41.7972-3.2181-83.3784-15.3529-123.7833c-7.4488-24.8024-17.9339-48.0687-35.0771-67.7234
		c-15.9213-18.2539-32.448-35.9797-48.7087-53.9376c-9.1824-10.1407-17.6529-20.9968-22.6352-33.6965
		c-4.3478-11.0825-6.0639-23.067-6.8837-35.0696c-0.9419-13.7911-0.0198-27.5013,0.6275-41.2739
		c0.6071-12.9177,0.901-25.8247,2.449-38.6848c0.4789-3.9784,2.3272-5.5615,6.1481-5.4795
		c5.6673,0.1215,11.064-1.5479,17.438-2.1584c-3.9911-3.5493-7.8978-3.3928-11.8074-3.354
		c-7.2776,0.0721-14.6127,1.0353-21.7732-1.0352c-1.938-0.5602-5.0309-0.5852-4.5568-3.5017
		c0.4736-2.9133,3.2476-2.6953,5.6853-2.4301c1.6146,0.1757,3.2638,0.0332,5.5482,0.0332
		c-4.8798-3.8317-10.3325-3.8302-15.3621-4.8691c-4.9073-1.0138-9.6963-2.3235-14.3752-4.0361
		c-3.048-1.1156-5.3179-2.9255-3.5011-6.6807c0.2968-0.6134,0.603-0.8143-0.1717-1.448c-4.4325-3.6244-8.2946-7.9968-13.9865-9.8861
		c-2.1876-0.7264-4.2979-1.7469-6.3414-2.8265c-1.6328-0.8623-2.4574-2.4647-1.7784-4.2208
		c0.8469-2.1907,2.7109-1.3918,4.2584-0.8885c8.441,2.7444,8.3382,2.7319,10.8764-5.9319
		c9.5756-32.6844,13.7736-66.1119,12.8535-100.0767c-0.7439-27.4607-4.0097-54.7427-11.373-81.2632
		c-5.9417-21.4003-15.1335-41.5414-27.0472-60.3729c-1.9943-3.1523-4.1646-5.2474-8.3968-4.6859
		c-3.7705,0.5001-7.6535,0.2354-11.4843,0.1671c-2.2735-0.0404-2.8019,0.7441-2.3552,2.9852
		c0.5817,2.9182,0.8251,5.924,0.9538,8.9032c0.0551,1.276-0.3703,2.7506-2.0993,2.9502c-1.7329,0.1997-2.9077-0.5435-3.2975-2.3015
		c-0.3599-1.6234-0.7806-3.2441-0.9863-4.8894c-0.6211-4.9672-1.7009-9.4626-7.6756-10.6818
		c-1.0232-0.2089-3.0551-0.5815-2.8004-2.2842c0.2575-1.7214,1.7358-3.2031,3.5069-3.0103c3.3697,0.3668,3.1256-1.1913,2.3549-3.438
		c-0.2668-0.7778-0.2834-1.6381-0.4624-2.4501c-2.1236-9.6328-2.1277-9.5798-11.8293-9.9078
		c-2.4961-0.0845-6.3251,0.6534-6.5447-2.6989c-0.2743-4.1882,4.0284-2.7261,6.4848-3.4716
		c2.2785-0.6917,6.5842,1.8358,6.5716-1.9169c-0.0135-4.0365-4.292-1.0359-6.5557-1.5961
		c-3.6403-0.9008-7.6056-0.4218-11.419-0.7158c-2.0303-0.1565-3.4317-1.2905-3.3332-3.5793
		c0.1093-2.5386,2.2275-2.1991,3.7181-2.2639c3.3107-0.144,6.6458,0.2028,9.9505,0.0063c4.6103-0.2739,5.3968-1.8478,3.5864-5.9817
		c-2.8664-6.5449-5.4214-13.2341-8.5038-19.6729c-1.3364-2.7916-2.4711-6.2498-6.8875-6.1841
		c-1.9788,0.0294-5.7828,0.3343-4.8904-2.9399c0.7719-2.8322,2.9857-6.8844,6.9802-5.7906
		c12.0824,3.3085,23.2596-0.9028,34.4838-3.7518c25.4797-6.4673,48.3372-18.3723,68.6538-35.0573
		c13.5632-11.1388,24.7895-24.4922,35.4609-38.3112c4.8813-6.3209,9.3807-12.9341,14.698-18.921
		c1.6339-1.8397,3.6959-2.9379,5.6237-1.2915c1.7335,1.4804,0.2729,3.5302-0.9114,4.8102
		c-8.7324,9.4382-15.4296,20.4493-23.6096,30.3135c-19.8423,23.9282-43.4045,42.8713-72.2502,55.0319
		c-13.2353,5.5796-26.7094,10.1049-40.9229,12.3325c-1.9602,0.3073-3.8643,0.9632-5.8017,1.4268
		c-7.0853,1.6953-6.9906,1.6486-4.0301,8.4498c2.9194,6.7066,5.7914,13.445,8.336,20.2988
		c1.2039,3.2424,2.8528,3.7108,6.0373,3.0848c9.1941-1.8075,17.7741-5.1208,26.2042-9.1364
		c21.299-10.1453,40.5415-23.2874,58.3066-38.7481c8.1327-7.0778,16.7027-13.7123,24.0656-21.5807
		c10.3748-11.087,22.018-20.9779,31.2838-33.1102c1.0074-1.3192,2.2204-2.4797,3.3046-3.7424
		c1.4305-1.6662,3.4016-2.9444,5.1875-1.4589c2.0834,1.7329,0.2183,3.6182-0.9988,5.1557
		c-12.4323,15.7066-26.4525,29.9236-41.0385,43.6027c-14.4731,13.5732-29.7764,26.1903-46.275,37.1701
		c-15.7451,10.4783-32.0572,20.0859-50.4568,25.5035c-3.145,0.9259-6.5831,0.4937-9.5484,2.5355
		c-1.1718,0.8068-2.2186,1.0502-2.0118,2.704c0.2455,1.9635,1.7105,1.7567,3.0019,1.7351c8.5497-0.1433,16.7928-1.9821,24.89-4.5925
		c0.9507-0.3064,1.8661-0.7574,2.8356-0.9634c1.9957-0.4236,4.1399-0.8453,4.9565,1.8009c0.736,2.3853-1.0409,3.3438-2.7988,3.983
		c-4.5929,1.6708-9.2354,3.2051-13.8593,4.7926c-5.4212-0.7444-10.3247,1.8076-15.518,2.495
		C54.9476,1054.007,60.1815,1053.6696,65.0135,1050.8746z M283.1525,1074.5422c8.8942,6.6036,18.4644,11.4639,28.2803,15.8993
		c15.5893,7.0441,30.7621,15.1746,46.7479,21.1384c24.9062,9.2921,48.2763,21.257,70.3456,35.9114
		c10.7678,7.1499,20.8068,15.1486,30.0711,24.2787c6.408,6.3149,12.6669,12.6719,18.1831,19.7548
		c1.1369,1.4597,3.3461,3.3079,1.243,5.1094c-2.1999,1.8846-4.4057,0.416-5.9368-1.6462
		c-8.9877-12.1072-19.8617-22.3134-31.6527-31.6163c-19.1576-15.1149-39.8535-27.8595-62.2719-37.3138
		c-31.8257-13.4216-63.4873-27.145-94.407-42.5486c-1.1333-0.5646-2.4035-1.8707-3.484-0.8344
		c-0.9372,0.899-0.2231,2.4303,0.128,3.7557c3.5659,13.4644,7.1598,26.9237,10.4962,40.446
		c7.7936,31.5865,16.2276,63.0034,25.1166,94.2941c8.2228,28.9453,17.2011,57.6711,26.9261,86.1447
		c6.9718,20.4124,14.5877,40.6053,22.0055,60.8635c0.7183,1.9617,1.3548,4.0973,3.4363,5.337
		c4.843,2.8846,9.6432,5.8431,14.4167,8.8419c12.792,8.0356,25.6436,16.1362,37.0418,25.9945
		c15.3257,13.2557,28.8726,28.3822,41.894,43.932c3.1979,3.8188,6.6055,7.4622,9.9285,11.1757
		c1.6869,1.885,2.4803,2.1376,3.3629-0.8884c4.0507-13.887,7.0752-28.0039,10.3909-42.0673
		c2.258-9.5774,0.0767-17.6477-4.1356-25.8052c-6.5266-12.6389-15.5561-23.4891-24.6635-34.2424
		c-16.8418-19.8853-35.6515-37.6619-57.4299-52.1234c-6.8753-4.5656-14.2365-8.2865-21.5801-12.0375
		c-1.8003-0.9194-4.3729-2.3146-2.96-4.8384c1.1242-2.0083,3.3895-1.0121,5.3942-0.371
		c11.2177,3.5863,20.1528,11.0277,29.5746,17.5524c18.7046,12.9529,34.747,28.8961,49.6398,45.9803
		c7.8451,8.9994,15.5674,18.1105,21.809,28.4193c2.291,3.7841,4.3329,8.0389,7.871,11.0294
		c3.652-7.8949,0.836-13.8083-4.0912-19.9268c-10.7526-13.3522-21.9067-26.2361-34.3487-38.0924
		c-14.7678-14.0724-30.8182-26.5293-48.0119-37.2284c-15.7008-9.7704-32.2392-18.3204-49.5361-25.1779
		c-2.0115-0.7974-5.2915-1.5527-3.9893-4.5692c1.2177-2.8209,4.1145-1.2053,6.2025-0.5143
		c5.3601,1.7737,10.4814,4.1053,15.5937,6.5404c25.4477,12.1204,49.0861,27.0057,70.7361,45.0802
		c17.6592,14.7427,33.0299,31.6494,47.4906,49.4487c0.7587,0.934,1.007,2.8037,2.8318,2.177c1.688-0.5798,1.0695-2.2283,1.1978-3.47
		c0.6815-6.5966,1.4115-13.1898,1.9678-19.7975c2.027-24.0785,2.174-48.2181,2.1281-72.3573
		c-0.0065-3.4249,0.152-6.8505-1.0526-10.3136c-2.8626-8.2291-8.8641-14.2452-14.2863-20.5151
		c-15.8397-18.3162-34.598-33.4087-54.4638-47.1093c-20.221-13.9456-40.3481-28.0115-62.3767-39.171
		c-5.6588-2.8666-11.2069-6.391-16.6038-9.9362c-1.2042-0.7909-2.7019-1.8562-1.7975-3.6249
		c0.7686-1.5027,2.4006-1.792,3.9409-1.4623c1.2805,0.2739,2.5874,0.7186,3.7128,1.3778
		c11.0391,6.4648,21.9822,13.0966,33.0927,19.4353c3.3618,1.9178,6.4849,4.5637,10.6115,4.981
		c-2.7585-3.1906-6.4497-4.9741-9.8902-7.1143c-1.2016-0.7474-2.1835-1.7015-1.5035-3.2596
		c0.6012-1.3774,1.7757-1.8651,3.2781-1.7147c1.7199,0.1722,3.108,1.0854,4.6075,1.8091
		c8.9827,4.3367,16.7184,10.6348,25.0543,15.9778c27.7044,17.7572,54.5414,36.626,75.5898,63.6464
		c0.2925-9.6818-1.1595-18.3304-1.9126-27.0308c-2.2705-26.229-6.5361-52.1794-12.4693-77.7679
		c-6.295-27.1486-15.1012-53.5724-25.5985-79.4594c-6.7123-16.5527-13.7328-33.1492-16.227-51.0555
		c-0.6417-4.6069-3.0477-6.6918-7.0369-7.6633c-14.3693-3.499-28.7939-6.7786-43.1232-10.4325
		c-17.4667-4.4539-35.4318-7.6173-50.7932-17.988c-1.9811-1.3375-6.3471-1.2246-5.2103-4.7558
		c0.9039-2.8076,4.6469-1.8621,7.2057-1.8243c26.1173,0.386,52.2083,1.487,78.2033,4.0728
		c11.3692,1.1309,22.7788,2.5216,33.0029,8.4468c2.6007,1.5072,5.4803,2.5332,8.6625,3.9756
		c-6.6404-12.1602-22.6039-26.2664-35.8449-32.1877c-23.2613-10.4024-47.6676-17.3469-72.1481-24.0787
		c-15.3457-4.2198-30.7702-8.3416-45.4921-14.3599c-20.4715-8.3692-38.5053-20.7939-54.5667-35.9673
		c-5.7198-5.4034-10.9222-11.3546-16.7972-17.5134c-0.2396,12.1863,0.9494,23.5169,1.8184,34.902
		c0.7281,9.5402,4.0091,17.985,8.77,25.6093c8.9956,14.4062,22.1835,25.0985,34.8909,36.1259
		c23.8371,20.6858,50.4002,36.7789,79.9309,47.9623c13.7025,5.1893,27.8385,8.8075,42.132,11.8963
		c2.3895,0.5164,5.6734,0.9286,5.3104,4.1085c-0.3857,3.3782-3.4494,2.2021-5.632,1.7697
		c-12.5262-2.4826-24.7854-5.7943-36.9218-9.9117c-41.2943-14.0092-76.1627-37.8699-106.9749-68.2093
		c-2.2449-2.2104-4.6341-4.2761-6.9928-6.3679c-0.62-0.5499-1.4444-1.0437-2.0907-0.0685
		c-0.3922,0.5918,0.0658,1.0535,0.4599,1.6401c1.1289,1.6807,1.7445,3.7427,3.0075,5.2913
		c8.6862,10.6502,17.6569,21.0398,28.2939,29.853c11.5041,9.5315,23.6996,18.0475,36.315,26.0679
		c18.4297,11.717,37.3838,22.3121,57.9323,29.8271c5.762,2.1073,11.7354,3.6338,17.5982,5.4703
		c1.0925,0.3423,2.3681,0.7427,2.2617,2.2435c-0.1164,1.6399-1.4094,2.1776-2.7878,2.3589c-3.0419,0.4-5.9052-0.434-8.8123-1.2473
		c-17.5691-4.9153-33.8038-12.9004-49.587-21.804c-31.3768-17.7006-60.9079-37.7941-83.6469-66.4024
		c-0.9896-1.2451-2.1424-2.5366-3.7045-1.653c-1.3469,0.7618-0.6315,2.353-0.3382,3.6398
		c4.4245,19.4053,8.63,38.8634,13.3079,58.2073c4.5635,18.871,9.6282,37.6205,14.418,56.4373
		c0.8052,3.1631,2.2953,5.2107,5.7953,5.8386c10.8008,1.9379,21.6044,3.7257,32.5297,4.9155
		c9.7248,1.0591,19.4655,2.1661,29.0359,4.4611c26.5527,6.3672,51.542,16.6532,75.3727,29.8325
		c7.2687,4.0198,14.2748,8.5157,21.3881,12.8153c1.5397,0.9307,2.7,2.2825,1.8697,4.1187
		c-0.9642,2.1326-2.8671,1.2936-4.3369,0.6757c-1.826-0.7682-3.5691-1.7845-5.2403-2.8607
		c-10.0474-6.4706-20.4918-12.3473-31.2729-17.3618c-25.4778-11.8502-51.5363-22.0966-79.94-24.7803
		C307.0389,1077.8656,295.1104,1076.0486,283.1525,1074.5422z M897.3495,992.7941c0.8427-1.6459,0.335-2.9294,0.1534-4.238
		c-1.9904-14.3494-6.7249-28.0681-9.6404-42.1963c-1.0288-4.9853-3.81-7.1976-8.4152-8.3986
		c-7.2291-1.8852-14.6641-3.0668-21.7751-5.088c-8.7532-2.488-17.6193-2.753-26.4437-3.8957
		c-5.4257-0.7026-10.8184-0.2596-16.3104,0.267c-9.4167,0.903-18.9523,0.5959-28.4389,0.7065
		c-1.2115,0.0141-3.0663,0.1722-3.0983-1.6638c-0.0302-1.7379,1.817-1.7368,3.027-1.9547c1.6263-0.2929,3.3126-0.274,4.975-0.3423
		c5.4868-0.2254,10.9695-0.1383,16.4674-0.5635c17.4483-1.3494,34.7709-0.5117,51.8535,3.7437
		c7.937,1.9771,15.9675,3.5784,24.0556,5.3723c-0.1516-8.3956-0.5419-8.966-7.3221-11.4649
		c-5.2065-1.9191-10.6295-2.6108-16.1192-3.1041c-2.465-0.2215-6.9373,0.8412-6.8281-1.814
		c0.1301-3.1646,4.5616-1.9885,7.1851-2.1505c6.7254-0.4153,12.9234,2.5788,19.911,3.5856
		c-0.1418-0.9488-0.2173-1.5555-0.3246-2.1565c-2.3069-12.913-5.3444-25.7316-5.4779-38.9349
		c-0.0233-2.3016-1.5203-2.6702-2.8922-3.399c-11.7823-6.2598-24.2794-10.7879-37.0341-14.4862
		c-10.8389-3.1429-21.8459-5.768-33.2451-6.1527c-2.0341-0.0687-5.6715,0.7316-5.7205-1.4019
		c-0.066-2.8763,3.6058-2.9619,5.9716-2.951c11.0029,0.0506,21.732-2.5457,32.7162-2.9806
		c18.5696-0.7352,37.0422-3.855,55.7158-2.0977c2.6953,0.2537,5.2514-0.2832,7.9219-1.9643
		c-3.9637-2.6121-8.1216-3.1686-12.053-4.2659c-19.9108-5.5581-39.9355-10.2765-60.8878-9.0737
		c-6.8082,0.3908-13.6624,0.1352-20.4895-0.0469c-2.1761-0.058-5.6556,0.5013-5.9148-2.2422
		c-0.2719-2.8782,3.4293-2.5766,5.3989-3.0799c21.6796-5.5403,41.8043-14.2903,59.2304-28.5474
		c7.7028-6.302,15.1889-12.9059,20.5012-21.5386c-5.7133,3.9799-11.0507,8.4271-16.7628,12.325
		c-12.5471,8.5623-26.1685,15.1297-40.2092,20.8617c-13.9446,5.6927-28.4568,9.0006-43.4285,10.2842
		c-2.1534,0.1846-5.5687,0.8674-6.0843-1.7497c-0.5373-2.727,2.9677-3.0878,4.996-3.8314
		c18.9443-6.9451,35.0603-17.894,47.6362-33.7462c4.3922-5.5364,8.2321-11.5004,11.0607-19.1747
		c-1.4943,0.9041-2.2161,1.2095-2.7769,1.6992c-14.0079,12.2385-30.4041,19.8909-48.0991,25.0229
		c-16.4431,4.7687-33.2229,6.6111-50.3263,5.7866c-6.5674-0.3166-6.6195-0.0577-5.8009,6.5586
		c0.9189,7.4277,1.8823,14.8549,2.5637,22.3063c1.7396,19.0255,4.1014,37.9762,6.6685,56.9017
		c3.0802,22.7081,6.0727,45.4313,9.4913,68.0894c2.5276,16.7526,2.983,33.8403,7.7651,50.23
		c3.069,10.5187,6.8358,20.8896,9.5771,31.4354c5.2274,20.109,11.8896,39.778,17.1957,59.8586
		c4.9839,18.8616,8.6811,37.9133,11.314,57.1827c2.2243,16.2792,3.9368,32.593,4.601,49.0781
		c0.4874,12.0962,1.5733,24.1805,1.4171,36.3185c-0.0661,5.1345-0.011,10.2708-0.011,15.4061
		c2.3592-7.828,3.9172-15.6426,4.6945-23.5342c1.5737-15.9792,4.8175-31.8733,2.5135-48.0948
		c-0.6504-4.5791-0.3946-9.2981-0.3926-13.953c0.0007-1.5756-0.047-3.4886,2.538-3.3961
		c3.8303,0.1371,14.2842,9.2679,14.4304,13.1986c0.3643,9.8047,1.2374,19.587,0.9235,29.4277
		c-0.2855,8.9523-0.0605,17.921-0.0605,27.6736c1.2341-2.5614,2.2664-4.4108,3.0419-6.3621
		c4.5722-11.5049,6.4686-23.575,7.4847-35.8304c0.1451-1.75-0.3014-4.1329,1.8052-4.7469c1.7429-0.5082,2.7361,1.6212,3.8829,2.6986
		c12.174,11.4381,22.2737,24.6676,32.4963,37.7936c1.7094,2.1948,2.096,4.5873,1.4717,7.0612
		c-2.9592,11.7278-3.9128,23.8564-7.3505,35.4976c-3.6221,12.2656-6.6203,24.6995-12.2801,36.3041
		c-3.7221,7.6317-7.6924,15.0869-12.1553,22.3041c-0.8801,1.4232-2.6602,3.5509-0.9364,4.8695
		c1.1733,0.8978,2.7759-1.113,3.9653-2.3512c5.2971-5.5139,10.0304-11.4919,14.9379-17.3409
		c10.0411-11.9679,17.9703-25.1466,23.5204-39.6381c6.1913-16.166,10.0858-33.0623,14.4069-49.8011
		c5.1127-19.8059,5.5671-40.0903,6.2834-60.3866c0.8974-25.4231,1.2079-50.8103-0.699-76.2021
		c-0.2219-2.9547-1.2607-3.965-4.0236-4.4266c-18.9695-3.1714-38.0027-4.1799-57.1702-2.2385
		c-2.4728,0.2506-4.9922,0.08-7.4888,0.0366c-1.019-0.0177-2.1118-0.2738-2.3544-1.4375c-0.3398-1.6293,1.0555-1.873,2.1354-2.1743
		c2.7237-0.7596,5.4475-1.5509,8.2146-2.1177c23.1105-4.7332,46.2404-9.3466,69.8935-10.4808
		c1.8933-0.0908,3.9393-0.1128,5.2205-2.2017c-3.5027-2.2817-7.3157-1.2433-10.873-1.703
		c-25.7469-3.3275-51.3768-1.2526-76.9674,1.8965c-4.9474,0.6086-9.849,1.5823-14.7842,2.3022
		c-1.3098,0.1909-3.0425,0.2428-3.3526-1.349c-0.3243-1.6641,1.3753-2.006,2.6466-2.3999
		c18.5701-5.7531,37.3726-10.5773,56.5211-13.9817c8.4858-1.5088,16.9995-2.8602,25.4992-4.291
		c1.4459-0.2434,3.241-0.4065,2.4459-2.5566c-1.5275-4.131-0.8607-8.5156-1.6848-12.7527c-0.6709-3.449-2.1614-5.3373-5.3512-6.2859
		c-23.9885-7.1332-48.3256-12.1891-73.4832-12.3331c-11.4944-0.0658-22.9897-0.0181-34.4835-0.1322
		c-1.7098-0.0169-4.4692,0.1685-4.4989-2.0087c-0.0395-2.888,3.0865-1.4401,4.7237-2.1434c0.26-0.1116,0.6476,0.1156,0.9763,0.1159
		c8.3099,0.0079,16.6218,0.1276,24.9291-0.0171c21.5864-0.3757,42.7757,2.2733,63.6776,7.6656
		c6.9064,1.7817,13.769,3.9725,21.0671,4.2125c-13.0394-7.3026-26.7424-12.7667-41.428-15.6629
		c-6.3804-1.2583-12.8228-1.8976-19.3162-2.2007c-1.8306-0.0856-3.9514-0.6509-3.702-3.1083
		c0.1996-1.9674,1.9782-2.4767,3.7661-2.5466c0.9985-0.039,1.9982-0.0643,2.9975-0.0673
		c14.2339-0.043,27.4969,4.2635,40.6462,9.0792c5.1022,1.8685,10.2064,3.7317,15.3098,5.5972
		c-0.2974-1.6019-1.0188-2.2564-1.849-2.7133c-7.8936-4.3438-16.1562-7.761-24.9308-9.9014
		c-1.2018-0.2932-3.0164-0.2794-2.7162-2.2056c0.3281-2.1068,2.1663-1.7566,3.595-1.5494c1.4707,0.2133,2.9327,0.6439,4.3332,1.1573
		C884.109,987.8262,890.7433,990.3277,897.3495,992.7941z M651.4246,1180.8024c0.4545-6.9955,0.8498-13.9956,1.3906-20.9845
		c0.238-3.0751,1.7264-5.1031,4.9756-6.0424c6.2174-1.797,12.3032-4.0431,18.4884-5.9584c7.867-2.4359,9.0312-1.4987,10.7417,6.476
		c2.9238,13.6312,5.892,27.2374,8.1534,41.011c2.9604,18.0306,5.1125,36.1136,5.4643,54.3827
		c0.2,10.3905-0.0325,20.7843-0.8532,31.0343c1.2213,0.2681,1.2409-0.4236,1.4109-0.8135c0.3948-0.905,0.6564-1.8673,0.9943-2.7981
		c6.1636-16.9769,6.624-34.8691,7.5901-52.5261c1.352-24.7106-2.4922-49.0985-7.1897-73.3136
		c-2.2371-11.5316-2.2245-11.3807,9.2675-13.7389c4.4625-0.9158,6.7804,0.5309,7.4302,4.8333
		c1.9048,12.6115,3.7365,25.2339,5.6006,37.8513c1.7183,11.6295,3.4418,23.2582,5.163,34.8872
		c0.5291-0.0245,1.0581-0.0492,1.5872-0.0739c1.7759-36.0828,0.2061-72.2007,0.1286-108.3689
		c8.4777,30.9695,11.0828,62.5609,11.1848,94.5715c2.2983-6.5192,4.6545-13.0339,6.1438-19.7412
		c6.2589-28.1874,8.7682-56.8348,9.6721-85.6305c0.6019-19.1801,0.2256-38.3494-1.8503-57.4587
		c-1.6384-15.0812,0.5907-30.119-3.371-45.4773c-4.9893-19.3422-5.6694-39.7715-8.6531-59.665
		c-1.8004-12.0039-2.5149-24.1986-5.5616-36.3913c-10.1634,7.6392-20.5092,13.7486-32.2452,17.8836
		c-22.2333,7.8337-44.9202,10.3205-68.2411,8.4108c-7.9594-0.6518-15.7584-2.2309-23.4536-4.3707
		c-1.0142-0.2821-2.3975-1.1077-3.2457,0.0817c-0.861,1.2072,0.2567,2.0252,1.0507,2.9302
		c5.8628,6.6818,10.2724,14.2904,13.9894,22.3219c4.8433,10.4647,4.8322,10.4698-6.6132,14.8859
		c4.553,1.1348,8.1219,2.2491,11.7739,2.8925c11.116,1.9585,22.2706,3.6962,33.3913,5.629
		c1.4958,0.2598,3.8062,0.3032,3.7935,2.3867c-0.0101,1.6722-2.1754,1.9758-3.505,2.2838
		c-8.5535,1.9808-17.0982,4.0748-25.7439,5.5611c-8.5317,1.4668-17.1792,2.2596-26.0258,3.3796
		c2.5444,6.023,7.3362,9.7207,10.1093,14.8611c4.3114,7.9918,6.7479,16.5486,8.5167,25.3547
		c0.5552,2.7641,1.3279,5.4255,4.7316,5.4483c11.569,0.0775,22.9627-1.6075,34.3029-3.7197
		c1.4491-0.2699,2.577-0.5663,1.6757-2.5651c-2.1389-4.7434-1.4636-5.8768,3.5889-6.4741
		c7.2578-0.8583,14.4752-1.8625,21.5342-3.8945c5.7391-1.652,11.568-2.9944,17.3662-4.4375
		c1.9254-0.4792,3.6373-0.0081,4.9778,1.5057c1.6981,1.9176-0.5293,3.0082-1.5188,4.713c2.8412-0.171,4.4751-2.5192,6.9902-1.9089
		c1.2153,0.2949,2.959-0.5034,3.4238,1.1933c0.4838,1.7658-1.1989,2.0789-2.4274,2.5177c-2.0339,0.7266-4.0667,1.46-6.1215,2.1235
		c-16.642,5.3733-33.8757,8.209-50.963,11.5979c-9.7299,1.9298-19.7292,4.2614-29.4737,3.7694
		c-7.1324-0.3604-6.2232,2.7643-5.9728,6.6965c0.8467,13.293,1.4312,26.5677,0.1355,39.8733
		c-0.2395,2.459,0.3548,4.9991,0.6269,8.2493c2.9078-2.2976,5.1351-3.9982,7.2985-5.777
		c10.2772-8.4503,21.2887-15.7292,33.5528-20.9906c1.5049-0.6456,3.1476-1.1157,4.7689-1.3052
		c1.8329-0.2144,3.3477,0.7671,3.8485,2.5435c0.5938,2.1061-1.5526,2.3649-2.6975,2.9338c-2.7805,1.381-5.7464,2.3832-8.6066,3.6104
		c-9.9911,4.2872-18.3562,11.1353-26.783,17.7261c-4.6711,3.6533-9.788,7.2087-12.5765,12.923
		c6.1481-4.3495,11.86-9.2445,17.9355-13.6365c17.098-12.361,35.4919-22.0706,56.4276-26.1653
		c2.5851-0.5057,6.7997-2.6703,7.5466,0.4258c0.6022,2.4967-4.2349,2.6791-6.8004,3.2649
		c-26.9653,6.1578-49.8116,19.7894-70.0976,38.1956c-4.558,4.1356-7.7141,8.7627-8.6351,15.1007
		c-1.9903,13.6975-5.7549,26.9855-10.5078,39.9783c-2.1227,5.8024-4.4706,11.5226-7.0077,18.0272
		c9.4888-4.4049,18.0462-8.3589,26.5865-12.3495c5.1405-2.4017,6.5045-1.8005,7.2612,3.7593
		C648.0319,1169.8763,648.8882,1175.3975,651.4246,1180.8024z M838.2587,385.4674c0-1.9853-0.004-3.9706,0.0006-5.9559
		c0.051-22.1863-2.5275-44.1004-6.7516-65.8507c-3.9748-20.4663-9.8133-40.39-17.5247-59.748
		c-12.3088-30.8987-29.2552-59.2283-49.7234-85.2683c-12.6673-16.1155-26.9017-31.0198-42.1094-44.897
		c-13.6048-12.4146-28.0361-23.7781-43.4313-33.8494c-10.9085-7.1362-21.9937-13.961-33.6027-20.0348
		c-23.2579-12.1686-47.8461-20.7842-72.9982-27.5354c-16.4595-4.418-33.5239-6.7283-50.5897-8.3207
		c-27.9279-2.6059-55.7672-2.3687-83.6626,0.999c-20.0236,2.4173-39.8428,5.7549-59.068,11.6871
		c-22.2159,6.855-43.9197,15.2866-64.2826,26.6344c-18.4187,10.2644-35.7632,22.1458-52.4468,35.1465
		c-15.6501,12.1954-29.4175,26.2343-42.7868,40.6507c-13.8913,14.9792-26.3137,31.197-37.4073,48.4719
		c-19.5793,30.489-34.0735,63.1305-42.8004,98.2438c-11.1334,44.7962-13.8285,90.1394-8.3985,136.0476
		c3.0788,26.03,8.7843,51.3522,17.1674,76.1497c7.7337,22.8767,18.9281,44.1106,31.1055,64.7851
		c10.2953,17.479,22.894,33.4161,36.3756,48.5892c5.3933,6.0701,11.0205,11.943,16.7571,17.6902
		c1.559,1.562,3.5717,4.5579,6.2296,0.7814c0.9707-1.3792,2.0356-3.6435,4.2521-2.4298c2.1909,1.1995,1.4188,3.4161,0.8807,5.3752
		c-0.8639,3.1454-1.6869,6.0317,1.5553,8.7572c6.9635,5.8541,13.6615,12.01,20.8133,17.6629
		c24.7424,19.5567,51.5869,35.5876,80.6886,47.6567c13.5887,5.6355,27.5536,10.2953,41.8381,14.1381
		c20.4438,5.4996,41.2755,8.6097,62.2029,10.5136c18.6867,1.7,37.5616,1.9768,56.3573,0.3469
		c10.7659-0.9334,21.6342-1.2368,32.2755-2.9488c30.2618-4.8686,59.6271-12.929,87.8703-25.1542
		c18.3868-7.9588,35.6199-17.9928,52.261-28.8212c13.4187-8.7316,25.8376-19.0877,37.927-29.8242
		c15.7134-13.955,30.2321-28.912,43.5514-45.0721c17.2967-20.9856,31.6823-43.8702,43.757-68.2358
		c8.3705-16.8907,14.8248-34.5075,20.1112-52.5543c4.3896-14.9853,7.9531-30.2083,10.1146-45.6688
		C837.4606,424.3564,838.6187,404.9414,838.2587,385.4674z M726.9559,794.6406c-0.9163,1.4417-1.3533,2.0875-1.749,2.7577
		c-9.8766,16.733-22.2954,30.6848-41.556,36.674c-14.6644,4.5601-29.2171,4.1111-43.121-2.8892
		c-10.1503-5.1104-16.9695-15.3801-10.2732-29.4383c-7.6343,3.1847-12.7812,8.5967-16.9061,15.0741
		c-6.2986,9.8908-6.0164,18.0661,0.747,27.6459c8.9072,12.6163,20.6287,21.3154,35.7089,25.0305
		c11.0524,2.7227,22.2386,3.6963,33.3182,0.1014c2.5182-0.8171,5.2905-2.9465,7.145-0.1758
		c1.7759,2.6535-1.1555,4.8019-2.6257,6.9261c-0.2797,0.4041-0.6627,0.7366-0.9982,1.1021
		c-11.5046,12.5352-26.2755,19.5287-42.148,24.4576c-13.1494,4.0833-26.7673,6.1237-40.8787,8.2333
		c1.0552,1.5955,1.5167,3.6654,3.4739,2.2091c2.6115-1.9432,5.0585-1.1083,7.5098-0.257
		c22.8387,7.9324,46.2689,7.0778,69.3934,2.9355c17.2188-3.0844,34.1631-8.1121,47.8483-20.5224
		c4.5146-4.0941,6.7264-7.7692,5.8647-14.0427c-2.5775-18.7658-4.5504-37.6144-6.7935-56.4266
		C729.7794,814.5074,729.0344,804.9183,726.9559,794.6406z M414.3846,849.9616c-55.4487,38.5073-111.3497,40.6364-168.3398,4.4775
		c-0.9897,1.9462,0.5403,3.0864,1.7399,4.406c13.0889,14.3987,28.5789,25.6632,45.3201,35.4427
		c11.1938,6.5389,23.4716,10.0302,35.5784,14.1263c7.6581,2.5909,15.1355,4.3826,23.3297,1.8796
		c5.694-1.7393,11.4333-3.2592,17.0782-5.248c12.6443-4.4548,23.6109-10.9082,31.9696-21.7798
		C408.6614,873.3805,413.0432,862.5178,414.3846,849.9616z M355.5945,1603.9447c2.1459-0.2452,1.8406-2.223,2.2375-3.4232
		c3.0626-9.2605,6.3751-18.4673,8.8335-27.8932c9.5342-36.557,10.5373-73.6698,5.7964-110.9474
		c-2.8766-22.6194-8.1852-44.7773-14.5992-66.6842c-1.6622-5.6771-5.8674-10.071-7.3949-15.2847
		c-8.5454-29.1667-16.4282-58.5308-24.2944-87.8926c-8.6469-32.2761-16.589-64.748-25.6912-96.8929
		c-5.648-19.9462-10.3342-40.1294-15.9908-60.0747c-7.0288-24.7838-12.3672-50.0406-19.5044-74.818
		c-1.7169-5.9602-3.3825-11.9353-5.1203-18.075c-1.1363,1.0142-0.7593,1.7921-0.5782,2.5953
		c2.548,11.3091,4.9667,22.6487,7.6357,33.929c5.128,21.673,10.1505,43.376,15.6889,64.9452
		c3.839,14.9509,7.2019,30.0146,10.9947,44.9771c4.6903,18.5032,7.6127,37.4496,12.1135,56.0068
		c5.1627,21.2867,10.8977,42.4492,16.9644,63.4982c8.1439,28.2557,16.3167,56.5233,25.4421,84.4707
		c10.7321,32.8678,18.8928,66.1561,21.1482,100.7524c2.3764,36.453-1.6492,72.0781-13.5992,106.7019
		C355.2237,1601.1486,354.211,1602.5205,355.5945,1603.9447z M486.5754,1240.2515c-11.7068-16.7571-26.4855-30.0614-44.1362-40.1775
		C456.9628,1213.691,472.5229,1226.1698,486.5754,1240.2515z M200.6568,1367.1296c-6.2196-0.2771-12.162,1.0171-18.9278,2.5687
		C189.4092,1374.1544,194.8676,1369.4377,200.6568,1367.1296z M417.5801,1182.4491c4.583,5.4624,10.739,8.6835,17.0152,11.7402
		C429.0618,1190.0889,424.4663,1184.6769,417.5801,1182.4491z"/>
	<path fill="#0C1B5E" d="M482.6047,728.7037c-19.7594,0.9329-41.6008-1.097-63.2202-5.1479
		c-18.8413-3.5305-37.3115-8.322-55.3909-15.0777c-16.8493-6.296-32.9798-13.8224-48.5633-22.6146
		c-21.2156-11.9698-40.5071-26.579-58.7618-42.7254c-22.507-19.9076-41.8493-42.4249-58.999-67.037
		c-18.9898-27.253-32.821-56.9053-42.3789-88.5729c-9.9096-32.8333-14.3442-66.4113-14.3891-100.7981
		c-0.0455-34.8775,4.77-68.8698,14.7094-102.1635c7.5967-25.4464,18.4449-49.5352,32.3209-72.2045
		c19.7146-32.208,44.0744-60.3926,72.5544-85.2404c24.9626-21.7791,52.4832-39.3438,82.3327-53.4654
		c14.8874-7.0432,30.39-12.8165,46.1732-16.9851c15.6293-4.1279,31.598-7.4366,47.8687-9.1702
		c15.219-1.6215,30.4028-3.3658,45.6933-3.3538c28.9499,0.0227,57.413,3.8804,85.6318,10.5255
		c13.6102,3.205,26.9854,7.1219,39.9262,12.0345c15.6356,5.9356,30.6505,13.5275,45.1552,22.0323
		c36.5053,21.405,67.9052,48.8297,95.1367,81.0234c15.9755,18.8865,29.7422,39.4075,40.9818,61.4879
		c19.6795,38.6608,31.4819,79.6934,35.0988,122.8937c2.6711,31.9046,1.6905,63.8083-3.8669,95.409
		c-6.2974,35.8083-18.4698,69.565-36.0423,101.4348c-16.8407,30.5425-38.3524,57.3868-63.2083,81.6937
		c-26.337,25.7553-55.8665,46.9663-89.047,63.072c-23.5645,11.438-48.0778,20.1841-73.652,25.7472
		C534.3859,726.7831,509.7671,729.2611,482.6047,728.7037z M774.8285,231.2307c-0.8423-1.6991-1.6886-3.6924-2.7719-5.5474
		c-10.9168-18.695-22.9092-36.5849-37.5027-52.7168c-3.7777-4.176-6.7802-5.1684-11.8834-3.145
		c-20.1059,7.972-38.7968,18.6902-57.6401,29.1268c-1.6142,0.894-2.9723,2.127-3.8305,3.8262
		c-12.9049,25.5507-27.0638,50.3489-44.0475,73.4545c-1.8811,2.5591-1.9729,4.9558,0.1366,7.6519
		c2.9629,3.7867,5.9424,7.6585,8.1866,11.881c2.0802,3.9142,5.0896,4.6006,8.5616,3.4889
		c15.5627-4.9833,31.5834-7.8967,47.6229-10.6584c3.8629-0.6651,5.6855-2.4509,6.86-5.8807
		c1.8884-5.5138,5.6075-9.8946,10.0598-13.4128c10.5917-8.3697,22.0982-7.9977,33.7883-2.5418
		c2.4413,1.1394,4.3407,2.021,6.7234-0.1626c11.3816-10.4305,22.9345-20.6771,33.7279-31.7292
		C773.6987,233.9651,774.7986,233.0222,774.8285,231.2307z M770.3303,486.0133c9.9491,0,16.7891-0.2334,23.6024,0.0923
		c3.76,0.1798,5.4733-1.4004,6.2986-4.7061c1.1622-4.6556,2.4396-9.2834,3.5419-13.9528
		c4.3641-18.4846,7.3387-37.1706,8.2606-56.1712c0.1444-2.9759-0.6961-4.5689-3.5623-5.5689
		c-6.2402-2.1772-12.2307-5.0003-18.5767-6.9565c-14.7603-4.5499-29.2481-9.9832-44.2754-13.6663
		c-2.3855-0.5846-4.7166-1.314-7.3026-0.3528c-9.2752,3.4475-18.9608,5.4703-28.4705,8.1021
		c-17.606,4.8724-35.2897,9.2608-53.3156,12.1219c-5.2979,0.8409-8.4248,2.5929-8.7252,8.4168
		c-0.2038,3.9515-1.1469,7.8975-2.0878,11.7661c-0.562,2.3106-0.1217,3.7912,1.9219,4.9698
		c15.6989,9.0536,30.6929,19.2001,45.5477,29.5537c2.4117,1.6809,4.2291,1.2469,6.6885-0.1338
		c8.9444-5.0212,18.3121-8.054,28.4226-3.3716c10.842,5.0213,17.9472,13.0203,19.1666,25.3198
		c0.2681,2.7045,1.2877,3.6685,4.0264,3.7282C758.8127,485.3639,766.1276,485.8192,770.3303,486.0133z M583.801,518.8943
		c-4.5281,1.7948-8.3275,4.7847-12.3272,7.3918c-2.5597,1.6685-4.0963,3.84-2.7715,7.4763
		c1.5773,4.3286,2.6276,8.8972,3.4468,13.4446c2.2446,12.4603,6.9359,24.4097,7.6254,37.1952
		c0.3464,6.422,2.4857,10.825,9.5663,13.4918c12.4357,4.6837,18.1027,14.6251,17.7617,28.1953
		c-0.1456,5.7962-2.2693,10.7015-4.6682,15.5651c-1.1912,2.415-0.8895,4.1099,0.6672,5.7136
		c9.7974,10.092,18.5262,21.1911,29.0211,30.6353c1.9615,1.765,3.4409,1.8784,5.6447,0.7258
		c21.5247-11.2579,41.6125-24.467,59.1586-41.4824c3.1036-3.0097,2.6699-4.6873,1.2891-7.7784
		c-7.1167-15.9309-15.1487-31.4075-23.1915-46.8729c-3.8708-7.4431-7.8461-14.5344-16.5682-18.2245
		c-9.2531-3.9149-17.8426-9.4493-26.5793-14.5219c-14.7993-8.5927-29.0936-17.9783-42.8492-28.166
		C587.4037,520.4807,585.7159,519.541,583.801,518.8943z M382.9453,683.6405c0,6.2598,0.0156,10.9197-0.0096,15.5796
		c-0.0074,1.3781,0.0412,2.2442,1.805,2.8945c9.3649,3.4528,19.1513,5.4666,28.8219,7.429
		c13.6458,2.7692,27.4967,4.6991,41.4615,5.7212c5.1457,0.3766,7.4124-1.2053,9.1459-5.7069
		c6.2752-16.2949,10.912-33.1338,16.7555-49.5654c2.8415-7.9902,3.104-15.6802-0.3441-23.6634
		c-2.3471-5.4343-4.0029-11.2303-5.3935-17.003c-4.4706-18.5585-9.36-37.015-12.3679-55.9188
		c-2.0883-13.1238-2.5146-12.9338-15.9309-15.1434c-3.1815-0.5239-4.778,0.2222-6.3662,2.9755
		c-11.136,19.3049-23.354,37.923-36.3363,56.032c-1.8517,2.5829-2.2348,4.7464-0.8512,7.6671
		c2.6714,5.6395,4.1233,11.5728,3.0439,17.9197c-1.8411,10.8254-7.7122,18.539-17.7008,23.0684
		c-3.255,1.4761-5.1455,3.4141-5.1212,7.4329C383.601,670.6487,384.018,677.9761,382.9453,683.6405z M578.9899,91.2839
		c0-2.1595,0.0472-4.3203-0.0097-6.4783c-0.1225-4.6424,1.6844-10.1231-0.7886-13.69c-2.3444-3.3812-8.0448-3.0858-12.3436-4.0829
		c-20.2354-4.6936-40.569-8.7054-61.4614-9.0978c-3.4166-0.0642-4.9438,0.9428-6.1479,4.1413
		c-7.8504,20.8524-14.5753,42.0653-20.9153,63.4123c-0.5378,1.8109-0.0035,3.2581,0.4707,4.8238
		c3.3248,10.9769,6.9082,21.8823,9.9426,32.9386c4.3988,16.0276,7.6703,32.3195,10.5724,48.6852
		c0.3763,2.1222,0.2832,4.6573,3.657,5.0627c6.2672,0.7531,12.4961,1.8442,18.7236,2.8969
		c2.1257,0.3593,3.4584-0.4047,4.5342-2.1693c9.6725-15.866,19.6844-31.514,30.5255-46.6115c1.8637-2.5953,1.4498-4.459-0.25-6.984
		c-4.4516-6.6129-7.4412-13.7627-5.7661-22.0382c2.7999-13.8327,11.3848-22.2276,24.7911-25.7351
		c2.5698-0.6723,3.4351-1.5885,3.7559-4.126C579.1624,105.2546,578.861,98.2692,578.9899,91.2839z M238.7359,603.8329
		c0.4879-0.1625,1.6209-0.4361,2.6671-0.9039c16.6487-7.4427,33.0173-15.4753,48.9494-24.3339
		c4.4545-2.4768,9.3642-4.3538,11.8939-9.9635c7.4286-16.473,16.0876-32.3256,26.4352-47.2036
		c6.4333-9.2499,12.838-18.5218,19.0816-27.8996c1.2578-1.8892,3.4131-3.9387,1.3496-6.7125
		c-2.278-3.062-4.3556-6.2777-6.7193-9.2694c-1.5866-2.0082-3.3671-2.7672-6.4097-2.0386
		c-21.2769,5.0949-42.4321,10.8395-64.2654,13.275c-2.5444,0.2839-4.2301,1.5039-5.3016,4.307
		c-6.4821,16.9561-24.6831,26.914-42.4043,18.9024c-2.2172-1.0023-3.4605-0.1647-5.1072,1.0843
		c-9.2838,7.0418-17.0257,15.6661-25.2061,23.8646c-2.3292,2.3343-2.8852,3.7988-1.355,6.5649
		c11.4539,20.705,24.6326,40.1841,40.6343,57.6799C234.3544,602.6901,235.8666,603.9527,238.7359,603.8329z M392.8859,239.1434
		c-0.4842-1.9301-0.9147-3.8756-1.4612-5.7879c-4.4684-15.6378-6.9816-31.7094-10.4153-47.5746
		c-0.5731-2.6478-0.9953-3.7924-3.845-4.4286c-8.9541-1.9988-16.6463-6.4613-21.8694-14.1499
		c-7.8748-11.5922-6.6151-23.2417,1.0979-34.3653c2.0876-3.0108,1.5839-4.8727-0.6767-7.2767
		c-7.6257-8.1096-15.0433-16.415-22.6734-24.5204c-3.337-3.5449-7.206-4.8923-11.8431-1.9468
		c-3.7711,2.3954-7.8593,4.2952-11.6065,6.7239c-15.6376,10.1347-30.6123,21.1457-44.2853,33.8657
		c-2.3022,2.1418-2.9328,4.0104-1.5689,7.1646c8.2491,19.0767,17.7814,37.4942,27.8932,55.6295
		c1.1888,2.1322,2.9557,3.4775,5.0863,4.5824c16.9179,8.7731,33.4431,18.2091,49.6427,28.2757
		c8.6021,5.3454,16.3893,11.7693,24.9062,17.1851c2.2678,1.442,3.9469,1.842,6.2109,0.0014
		c4.375-3.5567,8.9746-6.837,13.4729-10.2426C391.9885,241.4935,393.327,240.8671,392.8859,239.1434z M154.8553,359.2623
		c-0.0551,6.3413-1.4008,10.818,5.0065,12.5825c5.6752,1.563,11.0685,4.1905,16.7919,5.8768
		c9.9988,2.9459,19.7712,6.6793,29.8116,9.4571c5.6938,1.5752,11.1819,3.7183,17.7699,1.7455
		c28.0043-8.386,56.0535-16.772,85.319-19.8262c3.3334-0.3479,5.5414-1.7404,5.5-5.8244c-0.0332-3.2701,0.7318-6.6084,1.5524-9.8115
		c0.9742-3.8026-0.0917-6.0944-3.5654-8.113c-16.393-9.5265-32.3022-19.8338-47.5665-31.0826
		c-3.394-2.5012-5.7617-2.7133-9.5576-0.5204c-18.1571,10.489-39.0459,2.2373-45.2208-17.6772
		c-1.1567-3.7304-2.9588-5.089-6.961-5.4768c-10.0873-0.9774-20.2363,0.1855-30.3201-1.4102
		c-3.2401-0.5128-6.4493,1.1418-7.6059,5.3958C159.8597,316.4604,156.0623,338.6762,154.8553,359.2623z M624.3234,477.6787
		c-1.549-0.0741-2.5357,0.7075-3.4562,1.7815c-3.9476,4.6055-4.0373,6.0168,0.1591,11.1849
		c18.0057,22.175,34.2084,45.5818,48.4399,70.3551c1.1434,1.9905,2.6493,3.6111,4.8951,4.7581
		c20.2386,10.335,41.0429,19.3269,62.4497,26.9512c2.2626,0.8058,3.6244,0.9329,5.4131-1.2409
		c10.6541-12.9474,20.3646-26.5134,28.4883-41.2053c1.8775-3.3955,1.6802-5.9587-1.3035-8.7518
		c-9.7021-9.0828-19.2917-18.2919-28.7159-27.6622c-3.5272-3.507-6.5295-3.8603-11.2753-1.8583
		c-7.8831,3.3254-16.1683,4.3884-24.5343,0.221c-7.7115-3.8414-12.8951-9.8257-16.4254-17.352
		c-1.2085-2.5765-2.5946-3.7224-5.3921-4.2599c-12.6911-2.4383-25.5458-4.0452-37.9839-7.8116
		C638.2711,480.7261,631.2498,479.3592,624.3234,477.6787z M572.5989,239.4925c-0.1273,2.3571,1.7215,3.9805,6.707,7.212
		c2.575,1.6691,3.947,0.3698,5.6608-0.9612c21.7879-16.9223,44.316-32.7735,68.0958-46.7909
		c3.4258-2.0194,5.8533-4.5714,7.4919-8.2635c3.3443-7.5357,7.3694-14.7757,10.5757-22.3649
		c4.8112-11.3877,8.8015-23.1321,13.8719-34.3956c2.1812-4.8453,0.8325-7.4924-2.6352-10.376
		c-12.1412-10.0961-25.4816-18.3484-39.197-26.0894c-3.2303-1.8232-5.5757-1.4236-7.8456,0.9771
		c-8.8978,9.4111-17.7422,18.8729-26.58,28.3406c-1.8408,1.9721-2.1944,3.9966-1.1177,6.766
		c2.0399,5.2466,3.715,10.6126,2.6,16.5101c-2.3585,12.4741-9.1589,21.1855-21.1761,25.4208
		c-2.7852,0.9816-3.8982,2.289-4.3459,5.1581c-1.3042,8.356-2.8062,16.6902-4.5401,24.9681
		C577.7917,216.9312,575.1343,228.1991,572.5989,239.4925z M439.8698,59.8456c-1.9608,0.1462-2.9752,0.122-3.9488,0.3095
		c-14.0205,2.6999-28.2726,4.5861-41.9691,8.4429c-9.2813,2.6135-8.0567,0.6115-8.0225,10.3108
		c0.0451,12.7989,0.7253,25.595,1.074,38.3938c0.067,2.4569,1.0176,3.7641,3.4302,4.7579
		c17.9767,7.4045,25.2223,23.7941,18.196,41.3168c-1.0675,2.6622-1.4137,4.8084,0.3924,7.265
		c11.1226,15.1288,20.7049,31.277,30.8568,47.0462c1.3224,2.0542,2.4537,2.6438,4.7426,2.0843
		c11.2693-2.7546,8.9216-0.1978,10.4524-11.2732c0.3866-2.7972,0.7857-5.5927,1.1809-8.3887
		c2.6256-18.5755,5.3358-37.1156,10.1709-55.3087c2.0848-7.8448,5.0886-15.6847,1.9431-24.2583
		c-6.867-18.7178-13.887-37.3567-21.8883-55.6307C444.8413,61.1699,443.2385,58.8747,439.8698,59.8456z M521.5294,714.4639
		c18.767-2.0103,35.2235-4.9374,51.3491-9.7014c2.5369-0.7495,3.0209-2.0378,3.191-4.562
		c0.8736-12.9715-0.5859-25.8644-0.8228-38.7921c-0.086-4.6913-1.6177-6.6818-6.2736-7.6299
		c-11.8844-2.4201-20.6942-12.5511-22.3532-24.4005c-0.8911-6.3646,0.1992-12.1475,3.1911-17.7977
		c1.381-2.608,3.5579-5.2358,1.1138-8.693c-11.7165-16.5735-22.5276-33.733-32.3734-51.4815
		c-2.078-3.746-4.8103-1.5896-7.3774-1.5661c-2.7819,0.0255-3.0338,1.9583-3.2497,4.0711
		c-3.0288,29.6426-8.4692,58.8508-16.0362,87.6589c-1.11,4.2259-0.7288,8.0421,0.6773,12.1313
		c6.2573,18.1978,13.2487,36.0887,20.9448,53.7312C515.6393,712.3128,517.4738,715.976,521.5294,714.4639z M342.6267,288.4021
		c-1.2574-1.8968-2.5371-4.252-4.2093-6.2844c-17.4471-21.2045-32.6044-43.9794-46.5245-67.6062
		c-1.8164-3.083-4.0876-5.475-7.4489-7.0226c-17.9999-8.2879-36.1221-16.2687-54.6058-23.4394
		c-4.0327-1.5645-6.3013-0.417-8.744,2.6187c-10.67,13.2608-19.6846,27.5994-28.1213,42.3379
		c-1.5692,2.7413-1.2277,4.7897,0.9721,7.0405c7.8952,8.0782,15.9887,15.9341,24.5435,23.3182
		c2.6408,2.2794,4.8792,2.7933,8.4094,1.1715c18.5124-8.5045,37.8861,2.5979,41.7681,18.199
		c1.2742,5.1208,4.2615,6.4891,8.6732,7.0321c18.6273,2.2928,36.8498,6.5681,54.9622,11.3608
		C336.2808,298.1812,342.8779,292.9236,342.6267,288.4021z M810.5657,347.1751c-2.1744-17.8841-4.5855-34.4731-9.4693-50.6112
		c-0.7753-2.562-1.9001-3.7226-4.8062-3.7795c-15.2416-0.2985-30.4493-0.0682-45.6439,1.3466
		c-2.5056,0.2333-2.8117,1.2741-3.1608,3.2671c-1.7795,10.1587-7.4943,17.6034-16.3296,22.6707
		c-8.7365,5.0106-18.485,5.5157-26.6324,0.6157c-6.5612-3.9461-10.3004-2.4454-15.1121,1.5267
		c-10.3877,8.5751-22.0757,15.2691-33.6718,21.961c-8.4401,4.8706-8.757,4.3705-7.0539,13.9598
		c0.3565,2.0074,0.9237,2.8359,3.0179,3.0008c11.3942,0.8971,22.6143,3.082,33.9124,4.6748
		c17.6252,2.4849,34.809,6.8548,52.1027,10.7921c1.668,0.3797,3.1588,0.7802,4.8286,0.1645
		c9.7303-3.5871,19.5581-6.926,29.1934-10.7507c11.8693-4.7113,23.5718-9.8413,35.371-14.731
		C809.5753,350.2618,810.937,348.7622,810.5657,347.1751z M392.0119,528.5238c0.6647-2.9556-1.8313-4.1578-3.4691-5.525
		c-1.3225-1.1041-3.0997-1.2445-4.9671,0.2059c-3.5212,2.7353-7.7215,4.6394-11.0726,7.5432
		c-16.9805,14.7136-35.4959,27.2982-54.7611,38.6761c-9.9744,5.8909-17.4403,12.9126-21.8763,23.8857
		c-6.0296,14.9147-13.1852,29.3787-18.5264,44.5885c-0.7525,2.1428-2.2493,4.3962,0.4157,6.7181
		c13.601,11.85,28.8853,21.2336,44.1679,30.6472c3.2972,2.0308,5.591,0.7042,7.7731-1.5817
		c6.7767-7.0992,13.4241-14.324,20.2943-21.3308c2.9174-2.9755,2.3677-5.2731,0.1766-8.4783
		c-5.6765-8.3039-6.1227-17.611-2.3976-26.5972c4.4254-10.6758,12.8626-17.1899,24.3814-19.1527
		c4.1646-0.7098,5.5731-3.1638,6.2035-6.9111c3.1936-18.9821,6.8122-37.875,12.3568-56.3463
		C391.3291,532.8067,391.5878,530.6401,392.0119,528.5238z M220.7358,397.8948c-1.3499-0.238-3.3844-0.2984-5.268,0.433
		c-18.9842,7.3715-38.0786,14.4655-56.6325,22.915c-2.6719,1.2168-3.2484,2.5739-2.9552,5.2785
		c1.6322,15.0561,4.2178,29.9343,8.0043,44.5947c3.0748,11.9046,3.1292,11.8882,15.1407,12.0461
		c0.9979,0.0131,2.0118-0.0147,2.9899,0.1479c7.1328,1.185,14.1444-0.7356,21.2265-0.7831c2.228-0.015,3.5654-0.6236,3.8265-3.3211
		c0.6745-6.9677,4.2818-12.6792,9.4797-16.9865c11.585-9.6001,24.5623-11.8859,39.2475-2.0182
		c2.6556,1.7844,4.4088,1.7928,6.9964-0.0784c13.0526-9.4386,26.8208-17.7926,40.4412-26.3752
		c4.3419-2.736,9.1834-4.5724,13.1945-7.9208c3.1106-2.5967,1.2872-5.3695,1.039-8.1605c-0.2122-2.3866-1.4994-3.627-3.8473-3.6244
		c-9.8552,0.0109-19.4074-2.4453-29.1282-3.5209c-14.4713-1.6012-28.5395-5.258-42.761-8.1711
		C234.9347,400.9579,228.5341,397.6573,220.7358,397.8948z M487.0074,418.0645c4.3777,0.7197,7.8267-0.6857,10.4653-4.2699
		c2.6963-3.6625,6.1717-6.5504,9.886-9.0866c2.9648-2.0245,3.9551-4.5859,3.682-8.0846c-0.467-5.9828-0.6008-11.9957,0.6183-17.9252
		c0.5198-2.5282-0.6145-4.1507-2.4992-5.4941c-5.0527-3.6017-8.8634-8.403-12.6837-13.1836c-1.564-1.9572-3.17-2.6386-5.9201-2.412
		c-6.1159,0.5041-12.3264,0.784-18.4261-0.3945c-2.0597-0.3979-3.5283-0.081-4.7117,1.682
		c-3.8568,5.7457-9.1665,10.0486-14.486,14.3092c-1.6611,1.3304-2.382,2.3851-2.1945,4.8683
		c0.4493,5.9486,0.4703,12.0125-0.2003,17.9319c-0.4047,3.5729,0.6275,5.6917,3.2343,7.6211
		c4.1488,3.0709,8.0227,6.4654,10.7158,10.9314c1.6877,2.7988,4.0054,3.5925,7.1268,3.486
		C476.7447,417.8685,481.8882,416.8182,487.0074,418.0645z M516.6006,362.7186c1.2901-0.2447,1.7361-1.4449,2.5417-2.2452
		c6.3076-6.2658,11.0207-14.2054,19.4521-18.2411c10.7044-5.1238,18.6699-14.4026,29.4019-19.5095
		c1.7841-0.8489,3.7301-1.4142,5.1568-2.9306c9.4578-10.0523,18.8849-20.1245,27.2336-31.1545
		c1.4575-1.9256,1.5923-3.2643,0.1411-5.2271c-5.9764-8.0834-13.663-14.3893-21.2838-20.761
		c-1.5593-1.3038-3.6452-1.1901-5.1078,0.1106c-5.7578,5.1202-12.2317,9.5341-15.5665,16.983
		c-3.7848,8.4539-7.0356,17.1463-11.507,25.3004c-7.1343,13.0104-14.3506,26.0212-25.7666,35.8297
		c-4.0956,3.5189-6.9761,8.7261-12.7579,10.1894c-0.3522,0.0891-0.7571,0.597-0.849,0.9793
		C507.3057,353.6394,514.9293,362.711,516.6006,362.7186z M445.6821,361.8435c1.2451-0.2371,2.2739-1.0091,2.6087-2.1043
		c0.814-2.6624,2.8884-4.043,5.052-5.2423c3.1687-1.7564,3.1819-3.1102,0.21-5.2826c-6.8617-5.0157-12.9223-10.7354-17.6923-18.0124
		c-9.1182-13.9108-17.7074-28.2596-28.7258-40.8024c-7.0191-7.9903-15.0051-15.0384-23.8501-21.073
		c-2.3453-1.6001-3.9086-1.652-6.0003,0.328c-6.6418,6.2873-12.9524,12.8338-18.5086,20.1365
		c-2.3232,3.0533-1.5697,5.0297,0.4135,7.8405c7.4756,10.5948,18.6819,15.378,29.9354,20.4377
		c21.2682,9.5626,40.8848,21.4404,54.0081,41.6508C443.7458,360.6643,444.2572,361.8206,445.6821,361.8435z M497.0375,259.3673
		c-0.0127-10.1559-0.5405-17.5941-1.7831-24.9669c-0.6181-3.6674-2.4052-5.2978-6.6244-5.613
		c-8.5458-0.6385-16.8939,0.5494-25.3192,1.1878c-2.5764,0.1952-3.9499,1.2363-4.1891,3.8887
		c-1.1161,12.3738-0.1831,24.2418,4.8783,35.9946c9.2841,21.5576,15.3989,43.9016,11.7474,67.8021
		c-0.5797,3.7939-2.9064,8.82,4.7742,5.6154c0.7414-0.3093,1.9246,0.3083,2.8611,0.6207c5.4409,1.8148,6.1158,1.2176,5.0939-4.4343
		c-1.369-7.571-2.2963-15.1374,0.5282-22.6197c1.4716-3.8984,2.2481-7.9702,2.6173-12.096
		C493.0594,288.6845,500.0511,273.2475,497.0375,259.3673z M500.5214,328.5886c0.1363,2.4336,0.2215,4.263,0.3463,6.0897
		c0.1021,1.4944-0.0212,3.3689,1.4034,4.0642c1.5875,0.7749,3.3366-0.52,4.3578-1.4933
		c6.2337-5.9411,12.6347-11.6707,17.7028-18.8087c8.2482-11.6169,14.077-24.5007,19.9124-37.3133
		c4.111-9.0265,7.7474-18.3779,10.3225-28.0503c0.9926-3.7283,1.0878-6.6924-3.2255-8.681
		c-5.8858-2.7135-11.5872-5.8043-17.9252-7.4124c-1.6591-0.421-3.1951-0.8643-4.3405,1.056
		c-1.8521,3.1054-4.2106,5.9642-5.6829,9.2303c-4.3047,9.5492-8.071,19.3426-12.4319,28.8646
		c-5.4566,11.9147-4.71,25.0804-8.0034,37.4277C501.6048,318.6326,499.7542,323.7442,500.5214,328.5886z M607.377,403.8232
		c8.4271,0.6534,17.1467-0.6027,25.9002-1.7043c3.0187-0.3799,3.5562-2.0162,3.5775-4.3088
		c0.0851-9.1537,0.101-18.3083,0.1078-27.4626c0.0023-3.1479-1.2065-4.8521-4.7936-4.5977
		c-3.1251,0.2217-6.384,0.2173-9.4269-0.4274c-5.5159-1.1688-10.4373,0.2212-15.4016,2.298
		c-13.3892,5.6014-26.7352,11.5034-41.1721,13.814c-11.0881,1.7746-22.2904,3.5764-33.572,1.423
		c-8.4124-1.6057-10.2016,0.1692-9.288,8.6675c0.3881,3.6113,1.868,4.3079,5.1123,3.9469
		c8.0334-0.8939,15.9328-2.2802,24.1319,0.3674c8.9949,2.9046,18.8207,2.6505,27.8712,4.9695
		C589.286,403.0793,597.9097,404.4992,607.377,403.8232z M421.6296,369.6693c1.5762-0.1433,3.9398-0.1469,6.2074-0.6153
		c3.192-0.6595,4.8036-1.9731,2.4605-5.5802c-4.7094-7.2499-11.4001-12.3596-17.7541-17.9611
		c-8.9888-7.9244-20.9977-9.8742-30.6495-16.6701c-10.0302-7.0623-22.5748-9.2001-33.8605-13.8942
		c-4.0909-1.7015-6.8593,0.7751-8.2814,4.7326c-1.9693,5.4803-3.8026,11.0168-5.9938,16.4075
		c-1.5664,3.8534-0.6573,6.0758,3.1103,7.9219c9.844,4.8235,19.9052,9.1003,30.0846,13.1544
		C384.3138,364.0789,402.134,368.8777,421.6296,369.6693z M463.8777,323.8086c-0.2759-8.6395-1.3183-17.1731-3.5497-25.559
		c-1.7423-6.5479-5.185-12.6212-6.721-19.0398c-3.4534-14.4309-11.116-26.8926-16.8977-40.2213
		c-0.6429-1.482-1.7376-3.0127-4.236-2.3096c-7.2314,2.035-14.0423,5.0365-20.7085,8.4103
		c-2.1233,1.0746-2.9818,2.5212-2.1625,5.2399c5.0422,16.7309,10.5936,33.3327,19.5851,48.3436
		c6.2624,10.4548,14.084,19.9654,20.5952,30.3354c2.1921,3.4912,5.7885,5.8913,9.2902,8.206
		c2.2301,1.4742,3.2532,1.039,3.6104-1.5009C463.2382,331.767,464.0734,327.8472,463.8777,323.8086z M545.985,370.6409
		c8.0284-0.3284,15.7794-1.5629,23.5943-3.6028c8.1562-2.129,16.038-4.9685,24.0632-7.4198
		c12.2706-3.7481,23.5643-9.7451,35.1077-15.1716c2.4658-1.1591,3.227-2.6116,2.4321-5.4959
		c-1.9477-7.0667-4.275-13.9148-7.8621-20.3521c-1.207-2.1661-2.3336-2.5856-4.6888-2.0631
		c-7.4958,1.6629-14.5471,4.5918-21.6694,7.2928c-11.4856,4.3555-23.096,8.627-32.9858,16.1253
		c-6.2224,4.7177-12.4808,9.3782-19.4304,12.8466c-5.8484,2.9189-9.1685,7.8946-12.7373,12.8476
		c-1.7891,2.4829-0.741,3.7109,1.812,3.9939C537.7283,370.0972,541.8621,370.3199,545.985,370.6409z M541.9269,407.3564
		c-1.9781,0.1316-3.9668,0.1772-5.9315,0.4186c-2.0486,0.2517-4.996-0.8241-5.7908,1.634
		c-0.6417,1.9845,1.5369,3.8268,2.7694,5.5723c0.0959,0.1357,0.2034,0.2634,0.3079,0.3927
		c8.3713,10.3633,18.9794,17.7632,30.6076,24.1045c15.8157,8.6249,32.1417,15.8618,49.4111,21.0144
		c2.5398,0.7578,4.0208,0.3015,5.4182-1.8253c4.4069-6.7072,6.6659-14.3268,9.5041-21.7119
		c0.8784-2.2859-0.5833-3.0529-1.9698-3.8437c-9.1089-5.1953-18.7711-9.2671-28.4165-13.2815
		c-11.7806-4.9031-24.102-7.9709-36.8806-9.1658C554.5679,410.0674,548.5743,406.8364,541.9269,407.3564z M354.11,370.0971
		c-8.0995-0.4512-15.472,0.8728-22.8773,1.8793c-2.2424,0.3048-3.4084,1.1661-3.7704,3.6636
		c-1.4996,10.3466-0.0107,20.5373,1.2134,30.7526c0.1375,1.1469,0.256,2.3949,1.8145,2.5729
		c7.6253,0.8714,15.6019,2.0189,22.7692-0.3497c6.6745-2.2057,13.2361-5.0461,19.9151-7.4934
		c19.8134-7.2597,39.8549-11.4195,60.9684-7.2219c1.4827,0.2948,3.094,0.4862,3.5027-1.6465
		c0.6935-3.6186,1.5995-7.8-0.3361-10.6664c-1.5213-2.2528-5.524-0.5759-8.4289-0.5109c-0.1581,0.0035-0.3098,0.1285-0.4714,0.1554
		c-15.6337,2.6025-30.6119-1.0353-45.4954-5.0167C373.2154,373.6208,364.1737,368.1006,354.11,370.0971z M515.5279,414.5192
		c-2.3869,0.6524-4.1566,2.4185-6.0412,4.3905c-3.4587,3.6193-3.3369,5.7567,0.9012,8.9834
		c14.1896,10.804,25.1367,24.4307,32.5412,40.7044c7.2813,16.003,20.7808,25.9563,34.2405,36.0146
		c0.7337,0.5483,0.9932,1.2274,2.2674,0.2776c8.6417-6.441,15.9763-14.1254,22.7634-22.4549
		c1.5241-1.8705,0.7632-2.5571-0.033-4.0104c-5.5209-10.0769-15.2441-14.2282-25.1251-18.4267
		c-23.1995-9.8577-44.655-22.1638-58.8298-44.0964C517.5811,414.9245,516.912,414.4784,515.5279,414.5192z M498.0791,451.7298
		c0.8794,10.7337,1.4677,21.515,4.8167,31.8728c5.304,16.4039,11.5657,32.4112,19.7883,47.6051
		c1.0821,1.9995,2.3372,2.9144,4.7873,2.1021c6.7738-2.2454,13.2994-5.0788,19.8302-7.9172
		c3.1583-1.3727,4.3569-3.1517,3.1423-6.9059c-6.7714-20.93-15.5728-40.922-27.511-59.4048
		c-5.0358-7.7964-11.325-14.6355-18.9424-20.192c-3.1961-2.3314-4.5348-1.4471-4.9798,1.93
		C498.5346,444.4332,498.3804,448.0889,498.0791,451.7298z M389.9349,508.2274c0.7991-0.5426,1.4557-1.0144,2.1372-1.447
		c5.5822-3.5431,9.9269-8.2388,12.7823-14.1944c3.453-7.2021,6.4773-14.6193,10.1408-21.709
		c8.5434-16.5336,18.7545-31.8207,34.0039-43.0989c6.4597-4.7774,6.2725-7.5893-0.7765-12.0512
		c-0.4191-0.2653-0.9912-0.3501-1.3198-0.687c-1.8968-1.9453-3.0396-1.3174-4.4908,0.7502
		c-10.6824,15.2196-25.4335,25.8954-41.7167,33.847c-14.2245,6.9463-24.5692,17.5711-34.4865,29.1484
		c-2.5677,2.9975-2.3913,5.6963,0.2232,8.6128c6.2379,6.9586,12.9887,13.3405,20.506,18.8986
		C387.8526,506.9734,388.8525,507.5347,389.9349,508.2274z M463.1909,512.768c0.7095,7.2731,1.4015,14.5481,2.138,21.8185
		c0.2569,2.537,1.6321,3.3062,4.267,3.5876c10.093,1.0782,20.1368,0.8744,30.2002-0.1512c1.3805-0.1407,2.9471-0.1921,2.9817-1.9188
		c0.1129-5.635,1.6244-11.5754-0.3634-16.8448c-3.576-9.4795-7.0673-18.9787-10.3181-28.5734
		c-5.8324-17.2139-8.8523-34.7044-5.4329-52.8605c1.239-6.5785,0.4518-7.5403-6.3026-7.5311
		c-0.9979,0.0014-2.0022,0.1674-2.9926,0.0991c-3.7125-0.2562-5.2044,1.1356-4.3184,5.0117
		c3.0424,13.3101,0.8896,26.3972-1.4787,39.571C469.2907,487.6606,461.6801,499.1993,463.1909,512.768z M431.9175,407.5064
		c-1.6859-1.1706-2.5002,0.6901-3.1779,0.2483c-6.1988-4.0416-12.2961-2.1216-18.543-0.1288
		c-8.7144,2.78-17.6909,5.3266-26.7078,5.8489c-17.0613,0.9882-31.1925,9.2958-46.0267,16.0854
		c-2.4954,1.1421-2.9957,2.6808-2.284,5.1475c1.25,4.3326,3.001,8.4494,4.9306,12.5074
		c5.9698,12.5541,3.7939,12.9591,18.2559,7.7112c19.6012-7.1128,38.375-15.7252,55.379-27.8759
		C421.1114,421.7856,427.8307,415.7998,431.9175,407.5064z M459.3502,436.2992c-6.017,3.646-11.3695,7.4803-14.4642,14.3707
		c-4.289,9.5493-9.9929,18.3908-16.6376,26.5486c-9.6754,11.8787-14.2942,26.129-19.0301,40.3333
		c-0.7845,2.3528,0.2631,3.4848,2.206,4.7695c5.6319,3.7237,11.9679,5.7229,18.2611,7.7311
		c6.5323,2.0845,6.9497,1.6234,10.0027-4.8886c4.8701-10.3879,9.0241-21.0463,13.0482-31.7955
		c5.6754-15.16,8.8352-30.6742,8.5567-46.804C461.2365,443.2886,461.9211,439.5392,459.3502,436.2992z M310.0959,566.3843
		c7.5963-2.5004,12.8003-6.5547,18.0955-10.0707c16.8627-11.1969,33.278-23.0596,48.8283-36.084
		c2.6621-2.2297,2.3976-3.2467,0.1604-5.2721c-6.1448-5.563-12.1546-11.2756-18.1952-16.9531
		c-4.0024-3.7618-4.6175-3.5565-8.1508,1.081c-8.6732,11.3837-16.2818,23.485-23.8598,35.5836
		C320.8349,544.4709,315.4357,554.733,310.0959,566.3843z M485.9948,633.5986c1.9842-0.7298,1.9789-1.8201,2.2343-2.7627
		c6.8317-25.2116,10.8144-50.9232,13.5005-76.8633c0.3027-2.9233-1.3842-3.4744-3.6965-3.0336
		c-8.5865,1.637-17.2547,0.9478-25.8705,0.7026c-4.0344-0.1148-4.9535,1.206-4.3899,4.785
		c0.9273,5.8881,2.2135,11.7136,3.2175,17.574C474.4619,594.2648,479.9018,613.9853,485.9948,633.5986z M231.7406,393.3886
		c15.505,4.9937,30.1962,7.5692,44.8721,10.0842c10.6068,1.8177,21.3265,2.9848,32.0045,4.3762
		c6.3199,0.8234,6.8549,0.3142,6.4236-5.9691c-0.4775-6.9565-1.2468-13.8869-0.9601-20.8904
		c0.2726-6.6608-0.4047-7.0148-6.9892-5.7452c-11.5185,2.2209-23.1823,3.4225-34.5968,6.518
		C259.2645,385.3502,245.8739,388.3063,231.7406,393.3886z M659.1472,558.0439c0.7405-1.6786,0.0225-2.2977-0.3365-2.9794
		c-4.8568-9.2201-10.9339-17.6769-16.7104-26.308c-8.1335-12.1528-16.5956-24.0756-26.2944-35.0794
		c-2.3364-2.6509-3.7864-2.72-6.2071-0.105c-5.4161,5.8507-10.9051,11.6796-16.8379,16.9881
		c-3.2461,2.9045-2.1106,4.7997,0.154,6.9662c1.306,1.2494,2.9254,2.1776,4.4305,3.2115
		c6.8195,4.6848,13.9081,8.9913,20.7294,13.6292C631.1475,543.2557,644.8559,550.8632,659.1472,558.0439z M369.6983,258.3057
		c-0.9045-0.3914-1.9624-0.5127-2.4203-1.101c-3.3912-4.3578-8.5631-6.2079-12.8796-9.2336
		c-15.8911-11.1391-32.1169-21.7515-49.9281-29.671c-0.7943-0.3531-1.437-1.7278-2.5143-0.7281
		c-1.2386,1.1493-0.0753,2.0381,0.5161,2.9922c5.3235,8.5872,10.3523,17.3495,16.1809,25.6308
		c8.1268,11.5467,16.4413,22.9338,25.4254,33.8376c2.399,2.9116,3.8239,2.5536,6.1147-0.0959
		c5.3214-6.1543,10.9452-12.0469,16.4374-18.0539C367.3981,261.0433,368.1141,260.157,369.6983,258.3057z M727.6772,380.8477
		c-3.2363-1.2095-5.4484-2.4176-7.8036-2.8568c-21.1795-3.9497-42.2101-8.7906-63.787-10.3754
		c-6.342-0.4658-6.8354-0.518-6.2775,5.9868c0.5122,5.9722,1.2824,11.894,0.3127,17.8904c-1.257,7.7731-0.2563,8.7314,7.5554,7.519
		c0.4913-0.0763,0.9673-0.2461,1.4568-0.3396c13.3471-2.5492,26.761-4.8062,39.7844-8.8056
		C708.1973,387.0171,718.0927,386.1277,727.6772,380.8477z M650.928,207.6277c-15.3562,8.1016-28.9415,17.2664-42.05,27.1779
		c-5.8129,4.3952-11.6763,8.7234-17.5076,13.0943c-3.2365,2.4259-4.5966,4.5853-0.5572,7.9678
		c5.4584,4.5708,10.3512,9.8154,15.5051,14.7518c4.4842,4.2948,4.4861,4.276,8.2059-0.6495
		c10.6373-14.0851,19.3621-29.3931,28.1509-44.6323C645.7529,220.0016,649.5895,214.8741,650.928,207.6277z M474.5723,141.0711
		c-0.5619,0.341-1.0151,0.4572-1.0659,0.6697c-2.7734,11.5923-6.1747,23.046-7.7642,34.9013
		c-1.5894,11.8542-3.1358,23.7145-4.7945,35.559c-0.5776,4.1245,1.2117,5.3758,5.0065,4.6887
		c6.5851-1.1923,13.2383-0.8837,19.8763-0.8429c6.9419,0.0426,7.0633-0.1048,5.8855-6.8154
		C487.6607,186.1245,482.5064,163.3011,474.5723,141.0711z M753.1528,379.7406c-0.0051,0.3562-0.0101,0.7124-0.0151,1.0686
		c2.7018,0.7448,5.4465,1.3624,8.0984,2.2554c15.8013,5.3216,31.6141,10.6132,47.3398,16.1511
		c3.0726,1.082,3.8818,0.14,4.0105-2.5744c0.5832-12.3001,0.1136-24.5762-0.9483-36.8322c-0.2048-2.3642-1.143-3.6416-3.9469-2.4561
		c-14.0428,5.9377-28.1303,11.7702-42.2222,17.5911C761.3978,376.6258,757.26,378.1462,753.1528,379.7406z M669.0978,189.0607
		c6.689-2.297,12.1877-6.0486,18.1262-8.867c11.0842-5.2606,22.0844-10.6984,33.1215-16.0583
		c1.9313-0.9379,3.9124-1.9999,1.771-4.3952c-8.1815-9.1519-16.9584-17.6913-26.6589-25.2415
		c-2.4727-1.9245-3.6713-1.1803-4.8505,1.7829c-5.2222,13.1233-10.7187,26.1381-16.1881,39.1618
		C672.5944,179.7885,669.7735,183.745,669.0978,189.0607z M677.6725,574.7053c9.4976,19.0487,18.4156,36.9351,27.5034,55.1622
		c9.7072-7.5764,17.1622-16.7454,25.5316-24.952c5.5601-5.452,5.2374-6.3038-2.0803-8.8525
		C711.7079,590.1703,695.9333,581.6035,677.6725,574.7053z M451.0413,59.2737c7.4687,18.8178,14.7717,37.2181,22.4746,56.6258
		c6.2985-18.8276,12.2592-36.6842,18.2561-54.5285c0.8811-2.6218,0.0788-3.5168-2.6844-3.5371
		C476.563,57.7418,464.0363,57.406,451.0413,59.2737z M488.9361,715.9432c-0.0001-0.025-0.0001-0.0499-0.0002-0.0748
		c4.8247,0,9.6499,0.0457,14.474-0.0114c6.2881-0.0742,6.7407-0.6479,4.4521-6.4707
		c-5.7306-14.5804-12.7875-28.6403-17.1554-43.7576c-0.1741-0.6026-0.525-1.2426-0.9815-1.6591
		c-1.5295-1.3956-2.902-2.357-3.9133,0.6672c-5.3743,16.0705-10.8188,32.1179-16.3305,48.1418
		c-0.9104,2.6467,0.1005,3.2097,2.4627,3.1842C477.6075,715.9019,483.2721,715.9432,488.9361,715.9432z M281.2191,199.3017
		c0.4888-0.4336,0.9776-0.8672,1.4663-1.3009c-9.1638-15.0022-15.522-31.3856-24.077-46.7045
		c-1.78-3.1874-2.6417-3.0695-5.0173-0.8387c-7.7592,7.2859-15.1136,14.9072-21.6771,23.3146
		c-2.2349,2.8628-1.6237,4.0026,1.4471,5.2256c9.2312,3.6764,18.4205,7.4621,27.5704,11.3369
		C267.739,193.2176,274.4597,196.3053,281.2191,199.3017z M390.2936,599.1671c-0.3409,0.8608-0.2279,1.8578,0.9003,2.2997
		c1.2609,0.4938,1.5229-0.7758,2.1951-1.4334c2.8947-2.8318,4.0023-6.9272,6.5619-9.8073
		c7.7816-8.7558,13.5286-18.8394,19.6533-28.6787c2.9716-4.7739,6.5395-9.209,8.5556-14.5667
		c0.6182-1.6429,1.5106-2.7781-1.0379-3.7673c-6.6057-2.564-13.1443-5.3287-19.5713-8.3114
		c-2.4728-1.1475-3.5005-0.8135-4.2557,1.7603C397.3033,557.0824,393.3396,577.9185,390.2936,599.1671z M292.9747,585.1248
		c-0.8159-0.0836-1.1827-0.2417-1.418-0.1279c-15.8239,7.6505-31.6461,15.3049-47.4428,23.0114
		c-2.5218,1.2303-2.6537,2.9552-0.8343,5.1144c6.7782,8.0445,15.6597,13.8495,22.758,21.6017
		c3.4037,3.7172,5.0447,2.9712,6.795-2.0072c4.6899-13.3403,10.5467-26.1756,16.4924-38.9799
		C290.6158,590.9572,291.7232,588.0919,292.9747,585.1248z M332.1722,461.5838c-0.2357-0.5971-0.469-1.2158-0.7224-1.826
		c-2.3484-5.6573-4.9906-11.2143-6.9588-17.0007c-1.5574-4.5787-3.6315-4.6708-7.4677-2.5792
		c-16.3481,8.9136-31.4166,19.8029-46.9061,30.0404c-1.1811,0.7807-2.1716,2.0544-2.8485,3.3149
		c-0.3957,0.737-0.2894,2.0597,0.1234,2.8359c0.5335,1.0032,1.6131,0.4724,2.6141,0.2814
		c8.6132-1.6431,17.2755-3.0372,25.8699-4.7697c11.0611-2.2298,22.1665-4.3244,32.8958-7.9324
		C330.051,463.5184,331.8553,463.6259,332.1722,461.5838z M153.667,391.7448c-0.048,0.0018-0.0959,0.0036-0.1439,0.0053
		c0.4666,6.7944,1.0723,13.5832,1.34,20.3854c0.1308,3.3238,1.3822,3.4523,3.9951,2.3584
		c9.3236-3.9036,18.8723-7.3192,27.9891-11.6495c5.8524-2.7798,12.553-3.024,18.0036-6.7142
		c0.7774-0.5264,2.2284-0.5721,1.9854-1.7742c-0.1756-0.8687-1.2424-1.3771-2.293-1.6756
		c-3.988-1.1332-7.9644-2.3212-11.8973-3.6321c-11.3294-3.7762-22.685-7.4843-33.9226-11.5191
		c-3.6887-1.3244-5.2471-0.8894-5.0858,3.2731C153.7787,384.4448,153.667,388.0969,153.667,391.7448z M567.7332,591.9548
		c-1.0519-11.017-3.5924-21.8224-5.8557-32.6678c-1.3487-6.4628-3.2336-12.8137-4.8764-19.215
		c-0.7035-2.7416-1.4371-4.3115-5.0317-2.6054c-5.6719,2.6921-11.7195,4.6125-17.6627,6.705
		c-2.5625,0.9022-3.8275,1.4267-2.1644,4.754c8.0374,16.0817,18.1539,30.8292,28.4153,45.4966
		c1.0723,1.5328,2.1671,3.2656,4.8578,2.245C567.9233,595.7159,567.8895,593.9932,567.7332,591.9548z M629.9082,465.5722
		c17.0655,5.458,34.4683,8.6863,51.8113,12.1136c1.816,0.3589,4.5633,1.6413,5.8614-1.7953
		c1.1358-3.0069-0.0532-4.8369-2.2342-6.3509c-13.2086-9.169-26.1986-18.6591-40.5428-26.101
		c-3.2-1.6602-4.649-1.2638-5.9777,1.8326C635.9498,451.9753,632.9646,458.6328,629.9082,465.5722z M273.3973,297.6689
		c-1.7574,0.5494-3.5045-1.1449-4.4203,0.8972c-0.9183,2.0475,0.7247,3.1146,2.0118,4.058
		c5.6229,4.1214,11.2574,8.2323,17.0029,12.1795c9.1568,6.2909,18.4618,12.3428,28.1919,17.7469
		c3.6099,2.005,5.0082,1.1454,6.2689-2.525c1.7223-5.0143,3.9652-9.8544,6.0855-14.7254c1.3373-3.0721,1.6586-5.4612-2.4772-6.5561
		C308.5595,304.1111,290.9148,300.2064,273.3973,297.6689z M751.4297,281.3537c7.082-0.688,14.144-1.525,21.3002-1.3507
		c6.1398,0.1495,12.2892-0.1302,18.4346-0.1522c3.1714-0.0113,4.6845-0.7393,3.158-4.3946
		c-2.4786-5.935-4.5798-12.0291-6.7823-18.0773c-1.1313-3.1067-2.4106-6.057-4.4759-8.7424
		c-2.2289-2.898-4.1538-2.9317-6.4383-0.341c-7.6847,8.7146-16.743,15.9816-25.1511,23.934
		c-1.9051,1.8018-3.5576,3.8997-5.148,5.9967c-1.4611,1.9264-0.7895,3.0592,1.6156,3.1222
		C749.1041,281.3789,750.2672,281.3537,751.4297,281.3537z M571.7872,179.0603c0.3284-2.3388-0.0164-2.9369-1.6063-3.5509
		c-2.0694-0.7993-2.628,1.0631-3.3595,2.0695c-9.9526,13.6933-19.9109,27.3763-27.9415,42.3578
		c-1.7232,3.2148-0.3358,4.8873,1.9493,5.9486c5.6948,2.6449,11.6086,4.8139,17.3753,7.3105
		c2.4536,1.0623,2.3206-0.8653,2.7931-2.1091c2.78-7.3178,3.7105-15.074,5.3822-22.658
		C568.5241,198.7007,570.9069,189.0242,571.7872,179.0603z M768.5935,499.0811c-0.0004-0.4051-0.0007-0.8102-0.0011-1.2153
		c-6.644,0-13.2883-0.0264-19.9321,0.0211c-1.4078,0.0101-3.2778-0.7069-3.9768,1.1145c-0.5593,1.4577,0.9009,2.3228,1.8404,3.2092
		c10.0986,9.5289,20.2665,18.9856,30.2712,28.6121c2.7282,2.625,3.6022,0.578,4.57-1.3493
		c4.2572-8.478,8.1319-17.1146,11.134-26.1412c1.0478-3.1504,0.2499-4.2919-2.9539-4.2675
		C782.5616,499.1178,775.5774,499.0811,768.5935,499.0811z M684.676,301.4995c-6.743-0.0357-13.1852,1.7857-19.6821,3.1448
		c-8.6166,1.8025-17.15,4.0037-25.7162,6.0466c-3.2318,0.7707-4.2994,2.24-2.6927,5.6772
		c2.3065,4.9346,4.3915,10.0388,5.8859,15.2664c1.2471,4.3625,3.3154,3.7178,6.1241,2.0124
		c6.5283-3.9638,13.1846-7.7358,19.5408-11.959c6.3592-4.2251,12.9515-8.1455,18.7716-13.1496
		c1.4749-1.2681,2.5016-2.5671,1.4507-4.7336C687.551,302.1412,686.7057,300.9261,684.676,301.4995z M397.6315,177.1651
		c-4.2462,0.9343-4.1216,3.6246-3.5959,6.3882c2.051,10.7837,4.0728,21.5742,6.2812,32.3261
		c1.0011,4.8742,2.3387,9.6847,3.6738,14.4823c0.5636,2.0253,1.3191,3.4654,4.1902,2.0798
		c5.3651-2.5892,10.9749-4.6861,16.5412-6.8372c2.7359-1.0573,2.8156-2.3223,1.5028-4.815
		c-7.7698-14.7525-17.0082-28.5308-27.1758-41.7085C398.5063,178.3776,398.3493,177.1039,397.6315,177.1651z M625.903,88.7047
		c-9.6624-4.7961-19.085-9.0488-28.9816-12.2242c-2.9293-0.9399-4.606-0.9967-4.6743,2.8167
		c-0.2165,12.0972-0.5942,24.1919-0.9665,36.2858c-0.063,2.0441,1.1042,2.9143,2.7131,3.6531
		c1.5959,0.7328,3.0254,1.2406,4.4792-0.3508C607.6012,108.8934,617.5654,99.6482,625.903,88.7047z M374.0273,89.8283
		c-0.3565,0.0009-0.7129,0.0018-1.0694,0.0027c0-3.3306-0.1863-6.6743,0.0479-9.9883c0.2826-3.9989-1.8434-4.178-4.5741-3.03
		c-8.7251,3.6679-17.3622,7.545-26.0858,11.2167c-2.6454,1.1135-2.2144,2.4405-0.6982,4.0498
		c8.7737,9.3125,17.5835,18.5911,26.3289,27.93c1.2402,1.3244,2.251,1.9135,4.2296,1.2657c2.4188-0.792,1.7907-2.4908,1.7982-4.0081
		C374.0502,108.1208,374.0273,98.9745,374.0273,89.8283z M621.308,686.6223c-2.1568-3.775-5.1697-6.7266-8.1259-9.7861
		c-6.9232-7.165-13.5696-14.5968-20.3993-21.8535c-0.9237-0.9814-1.8785-2.5439-3.7393-1.4748
		c-1.5323,0.8804-0.9852,2.2946-0.9217,3.5668c0.2152,4.3131,0.5865,8.6225,0.6633,12.9375
		c0.1482,8.3258,0.1281,16.6544,0.1942,24.9818c0.024,3.0227,0.6304,4.437,4.4242,3.2662
		C603.1313,695.2579,612.4144,691.3358,621.308,686.6223z M199.5272,278.0085c2.6552,0,5.3192-0.1335,7.963,0.0402
		c2.3095,0.1517,3.5483-0.6987,4.498-2.8345c0.9294-2.09,1.0325-3.6242-0.7776-5.24c-3.3136-2.958-6.503-6.0547-9.7583-9.0785
		c-4.7312-4.3947-9.5102-8.7387-14.1955-13.1816c-1.8555-1.7594-2.9598-1.4093-4.1648,0.7334
		c-4.3206,7.6828-7.0663,16.0306-10.3381,24.153c-1.4849,3.6864,0.1824,5.1766,3.9159,4.7874
		C184.3133,276.5911,191.8971,278.2106,199.5272,278.0085z M370.7066,665.4736c0.0443-0.4955,0.1566-0.996,0.1212-1.4858
		c-0.1541-2.1259,1.2195-4.7484-2.0703-5.8391c-3.0582-1.0139-5.6562-1.7075-8.3529,1.3577
		c-6.3382,7.2042-13.0172,14.1124-19.6691,21.034c-1.9893,2.07-2.101,3.4212,0.6396,4.7397
		c8.0545,3.8749,16.2833,7.3331,24.6735,10.4023c2.6821,0.9811,3.9934,0.0438,4.0551-2.9733
		C370.2895,683.6307,369.8715,674.5374,370.7066,665.4736z M211.0136,500.2849c-1.1216-1.7588-1.3732-4.6035-5.0971-4.5022
		c-10.1212,0.2751-20.2495,0.3598-30.3751,0.3617c-3.266,0.0006-3.4183,1.323-2.6258,3.9901
		c2.5089,8.4437,6.3707,16.3168,9.8883,24.3407c1.0509,2.3972,2.3724,2.3118,4.0234,0.7599
		c7.5858-7.1301,15.1643-14.268,22.7232-21.4266C210.3958,503.0079,211.0488,502.0337,211.0136,500.2849z M503.7082,257.5733
		c5.0486-6.8165,7.0333-13.7168,10.6964-19.7156c2.1213-3.474,2.3007-6.2639-3.0392-6.5544
		c-2.2675-0.1234-4.4988-0.8277-6.7599-1.1829c-1.6966-0.2665-2.9849,0.0841-2.8148,2.2656
		C502.4152,240.3989,503.0132,248.4138,503.7082,257.5733z M590.3516,312.1281c7.519-2.3159,15.2276-4.1679,22.4816-7.1324
		c3.9611-1.6188,0.4653-4.787-0.8135-6.396c-1.8101-2.2777-2.1044-7.0624-7.009-5.5529c-0.1353,0.0417-0.2152,0.2472-0.333,0.3641
		C599.1506,298.8995,594.7703,305.3047,590.3516,312.1281z M405.1756,279.5374c-1.4885-8.911-5.8101-15.9117-7.5302-23.7243
		c-0.2273-1.0325-1.3542-1.7575-2.3118-0.901c-2.4422,2.1846-5.8535,3.0306-7.7344,6.0601
		c-1.0249,1.6508-1.5228,2.6145,0.2359,4.0482C393.4411,269.5904,398.9369,274.2959,405.1756,279.5374z M612.1949,411.4037
		c4.7504,3.6045,9.386,4.9852,13.5397,7.2438c7.0314,3.8232,7.9669,3.3247,9.0865-4.5991c0.1156-0.818,0.066-1.6588,0.1704-2.4791
		c0.276-2.1698-0.6517-2.9716-2.8149-2.8826C625.7863,408.9497,619.434,409.4033,612.1949,411.4037z M556.7902,496.5453
		c0.8993,5.541,2.8739,9.7351,4.5319,14.0221c0.6904,1.7849,0.9623,4.9254,2.7907,4.7377c2.5828-0.2651,5.2433-1.7424,7.0771-4.1275
		c0.9594-1.2478,0.7309-2.0222-0.2602-2.9531C566.7062,504.2579,562.6339,500.1096,556.7902,496.5453z M328.6606,361.6171
		c0.7081,1.1747-1.6017,3.9884,1.5659,4.0812c3.7859,0.1109,7.627-0.0802,11.2847-1.516c1.0956-0.43,1.5861-1.007,1.8121-2.0566
		c0.3182-1.4777-0.9991-1.5442-1.7474-1.9219c-2.07-1.045-4.2211-1.9299-6.3445-2.8682
		C329.157,354.6514,328.8367,354.8507,328.6606,361.6171z M457.6271,520.2094c-3.0836,3.7767-5.5129,7.4182-6.7986,11.7748
		c-0.8723,2.9559-0.8056,4.6158,2.5341,5.1235c3.2979,0.5014,5.6729-0.3345,5.4422-4.1958
		C458.5512,528.6694,458.031,524.4429,457.6271,520.2094z M369.648,465.583c-4.3438,1.0099-8.624,0.1727-12.1254,3.1032
		c-3.0052,2.5152-2.5532,4.4285-0.4995,6.9416c2.3756,2.907,3.7858,0.33,5.0534-1.0357
		C364.742,471.7206,367.1401,468.6009,369.648,465.583z M451.4605,239.0499c1.5027-2.4041,2.062-4.6104,0.7837-6.7652
		c-0.4668-0.787-2.1891-0.6829-2.6678,0.0689C447.8325,235.0928,450.5324,236.6511,451.4605,239.0499z"/>
</g>
</svg>
